<?xml version="1.0" encoding="UTF-8" standalone="no"?>
<!-- Created with Inkscape (http://www.inkscape.org/) -->

<svg
   xmlns:dc="http://purl.org/dc/elements/1.1/"
   xmlns:cc="http://creativecommons.org/ns#"
   xmlns:rdf="http://www.w3.org/1999/02/22-rdf-syntax-ns#"
   xmlns:svg="http://www.w3.org/2000/svg"
   xmlns="http://www.w3.org/2000/svg"
   xmlns:sodipodi="http://sodipodi.sourceforge.net/DTD/sodipodi-0.dtd"
   xmlns:inkscape="http://www.inkscape.org/namespaces/inkscape"
   width="41.251549mm"
   height="41.250362mm"
   viewBox="0 0 146.1669 146.1627"
   id="svg2"
   version="1.1"
   inkscape:version="0.91 r13725"
   sodipodi:docname="slice.svg">
  <defs
     id="defs4">
    <inkscape:path-effect
       vertical="false"
       scale_y_rel="false"
       prop_scale="1"
       bendpath="m -591.55728,-175.71202 155.03665,0"
       is_visible="true"
       id="path-effect4197"
       effect="bend_path" />
  </defs>
  <sodipodi:namedview
     id="base"
     pagecolor="#ffffff"
     bordercolor="#666666"
     borderopacity="1.0"
     inkscape:pageopacity="0.0"
     inkscape:pageshadow="2"
     inkscape:zoom="2.8"
     inkscape:cx="-25.240303"
     inkscape:cy="25.041162"
     inkscape:document-units="px"
     inkscape:current-layer="layer1-3"
     showgrid="false"
     showborder="false"
     fit-margin-top="0"
     fit-margin-left="0"
     fit-margin-right="0"
     fit-margin-bottom="0"
     inkscape:window-width="1920"
     inkscape:window-height="1054"
     inkscape:window-x="0"
     inkscape:window-y="0"
     inkscape:window-maximized="1" />
  <metadata
     id="metadata7">
    <rdf:RDF>
      <cc:Work
         rdf:about="">
        <dc:format>image/svg+xml</dc:format>
        <dc:type
           rdf:resource="http://purl.org/dc/dcmitype/StillImage" />
        <dc:title></dc:title>
      </cc:Work>
    </rdf:RDF>
  </metadata>
  <g
     inkscape:label="Layer 1"
     inkscape:groupmode="layer"
     id="layer1"
     transform="translate(-766.87789,351.67704)">
    <g
       transform="translate(2229.9181,-808.91056)"
       id="layer1-3"
       inkscape:label="Layer 1">
      <text
         inkscape:export-ydpi="90"
         inkscape:export-xdpi="90"
         inkscape:export-filename="/media/dries/VDAB-DRIESH/V.HTML/TestWebsite/Img/Plogo_klein_header2.png"
         sodipodi:linespacing="125%"
         id="text4147"
         y="465.25851"
         x="-1374.4512"
         style="font-style:normal;font-variant:normal;font-weight:normal;font-stretch:normal;font-size:7.35391235px;line-height:125%;font-family:Pacifico;-inkscape-font-specification:Pacifico;letter-spacing:0px;word-spacing:0px;fill:#000000;fill-opacity:1;stroke:none;stroke-width:1px;stroke-linecap:butt;stroke-linejoin:miter;stroke-opacity:1"
         xml:space="preserve"><tspan
           y="465.25851"
           x="-1374.4512"
           id="tspan4149"
           sodipodi:role="line" /></text>
      <text
         inkscape:export-ydpi="90"
         inkscape:export-xdpi="90"
         inkscape:export-filename="/media/dries/VDAB-DRIESH/V.HTML/TestWebsite/Img/Plogo_klein_header2.png"
         sodipodi:linespacing="125%"
         id="text4151"
         y="630.17279"
         x="-1374.8225"
         style="font-style:normal;font-variant:normal;font-weight:normal;font-stretch:normal;font-size:7.35391235px;line-height:125%;font-family:Pacifico;-inkscape-font-specification:Pacifico;letter-spacing:0px;word-spacing:0px;fill:#000000;fill-opacity:1;stroke:none;stroke-width:1px;stroke-linecap:butt;stroke-linejoin:miter;stroke-opacity:1"
         xml:space="preserve"><tspan
           y="630.17279"
           x="-1374.8225"
           id="tspan4153"
           sodipodi:role="line" /></text>
      <g
         id="g4274">
        <path
           transform="matrix(-0.50001077,-0.86601918,0.86603162,-0.49998923,0,0)"
           d="m 318.56696,-1505.4338 a 146.16376,146.16585 0 0 1 -73.08189,126.5833 l -73.08187,-126.5833 z"
           sodipodi:end="1.0471976"
           sodipodi:start="0"
           sodipodi:ry="146.16585"
           sodipodi:rx="146.16376"
           sodipodi:cy="-1505.4338"
           sodipodi:cx="172.4032"
           sodipodi:type="arc"
           id="path4247"
           style="opacity:0.98000004;fill:#000000;fill-opacity:0.98823529;fill-rule:evenodd;stroke:none;stroke-width:1.29999995;stroke-linejoin:miter;stroke-miterlimit:4;stroke-dasharray:none;stroke-opacity:1" />
        <path
           style="opacity:0.98000004;fill:#ca7035;fill-opacity:1;fill-rule:evenodd;stroke:none;stroke-width:1.29999995;stroke-linejoin:miter;stroke-miterlimit:4;stroke-dasharray:none;stroke-opacity:1"
           id="path4249"
           sodipodi:type="arc"
           sodipodi:cx="179.08388"
           sodipodi:cy="-1501.5768"
           sodipodi:rx="134.73543"
           sodipodi:ry="134.73737"
           sodipodi:start="0"
           sodipodi:end="1.0471976"
           d="m 313.81931,-1501.5768 a 134.73543,134.73737 0 0 1 -67.36772,116.686 l -67.36771,-116.686 z"
           transform="matrix(-0.50001077,-0.86601918,0.86603162,-0.49998923,0,0)" />
        <path
           transform="matrix(-0.50001077,-0.86601918,0.86603162,-0.49998923,0,0)"
           d="m 302.74779,-1501.5768 a 123.66391,123.6657 0 0 1 -61.83196,107.0977 l -61.83195,-107.0977 z"
           sodipodi:end="1.0471976"
           sodipodi:start="0"
           sodipodi:ry="123.6657"
           sodipodi:rx="123.66391"
           sodipodi:cy="-1501.5768"
           sodipodi:cx="179.08388"
           sodipodi:type="arc"
           id="path4251"
           style="opacity:0.98000004;fill:#000000;fill-opacity:0.98823529;fill-rule:evenodd;stroke:none;stroke-width:1.29999995;stroke-linejoin:miter;stroke-miterlimit:4;stroke-dasharray:none;stroke-opacity:1" />
        <path
           transform="matrix(-0.50001077,-0.86601918,0.86603162,-0.49998923,0,0)"
           d="m 298.55193,-1501.1125 a 118.66389,118.66559 0 0 1 -59.33195,102.7674 l -59.33193,-102.7674 z"
           sodipodi:end="1.0471976"
           sodipodi:start="0"
           sodipodi:ry="118.66559"
           sodipodi:rx="118.66389"
           sodipodi:cy="-1501.1125"
           sodipodi:cx="179.88805"
           sodipodi:type="arc"
           id="path4253"
           style="opacity:0.98000004;fill:#d4aa00;fill-opacity:1;fill-rule:evenodd;stroke:none;stroke-width:1.29999995;stroke-linejoin:miter;stroke-miterlimit:4;stroke-dasharray:none;stroke-opacity:1" />
        <g
           transform="translate(160.71429,1.7857143)"
           id="g4215">
          <circle
             r="9.5535717"
             cy="496.00211"
             cx="-1516.1511"
             id="circle4437"
             style="opacity:0.98799995;fill:#860e00;fill-opacity:1;fill-rule:evenodd;stroke:none;stroke-width:0.60000002;stroke-linejoin:miter;stroke-miterlimit:4;stroke-dasharray:none;stroke-opacity:1" />
          <path
             inkscape:connector-curvature="0"
             id="circle4161"
             d="m -1516.1511,484.3414 c -6.4207,0 -11.6607,5.24001 -11.6607,11.66069 0,6.42069 5.24,11.6607 11.6607,11.6607 6.4207,0 11.6607,-5.24001 11.6607,-11.6607 0,-6.42068 -5.24,-11.66069 -11.6607,-11.66069 z m 0,3.26438 c 4.6565,0 8.3963,3.73974 8.3963,8.39631 0,4.65658 -3.7398,8.39668 -8.3963,8.39668 -4.6566,0 -8.3967,-3.7401 -8.3967,-8.39668 0,-4.65657 3.7401,-8.39631 8.3967,-8.39631 z"
             style="color:#000000;font-style:normal;font-variant:normal;font-weight:normal;font-stretch:normal;font-size:medium;line-height:normal;font-family:sans-serif;text-indent:0;text-align:start;text-decoration:none;text-decoration-line:none;text-decoration-style:solid;text-decoration-color:#000000;letter-spacing:normal;word-spacing:normal;text-transform:none;direction:ltr;block-progression:tb;writing-mode:lr-tb;baseline-shift:baseline;text-anchor:start;white-space:normal;clip-rule:nonzero;display:inline;overflow:visible;visibility:visible;opacity:1;isolation:auto;mix-blend-mode:normal;color-interpolation:sRGB;color-interpolation-filters:linearRGB;solid-color:#000000;solid-opacity:1;fill:#000000;fill-opacity:1;fill-rule:nonzero;stroke:none;stroke-width:17.75499916;stroke-linecap:butt;stroke-linejoin:miter;stroke-miterlimit:4;stroke-dasharray:none;stroke-dashoffset:0;stroke-opacity:1;color-rendering:auto;image-rendering:auto;shape-rendering:auto;text-rendering:auto;enable-background:accumulate" />
        </g>
        <g
           transform="translate(150.71429,0.71428573)"
           id="g4241">
          <circle
             r="7.3214288"
             cy="569.08069"
             cx="-1538.5222"
             id="circle4439"
             style="opacity:0.98799995;fill:#860e00;fill-opacity:1;fill-rule:evenodd;stroke:none;stroke-width:0.60000002;stroke-linejoin:miter;stroke-miterlimit:4;stroke-dasharray:none;stroke-opacity:1" />
          <path
             style="color:#000000;font-style:normal;font-variant:normal;font-weight:normal;font-stretch:normal;font-size:medium;line-height:normal;font-family:sans-serif;text-indent:0;text-align:start;text-decoration:none;text-decoration-line:none;text-decoration-style:solid;text-decoration-color:#000000;letter-spacing:normal;word-spacing:normal;text-transform:none;direction:ltr;block-progression:tb;writing-mode:lr-tb;baseline-shift:baseline;text-anchor:start;white-space:normal;clip-rule:nonzero;display:inline;overflow:visible;visibility:visible;opacity:1;isolation:auto;mix-blend-mode:normal;color-interpolation:sRGB;color-interpolation-filters:linearRGB;solid-color:#000000;solid-opacity:1;fill:#000000;fill-opacity:1;fill-rule:nonzero;stroke:none;stroke-width:17.75499916;stroke-linecap:butt;stroke-linejoin:miter;stroke-miterlimit:4;stroke-dasharray:none;stroke-dashoffset:0;stroke-opacity:1;color-rendering:auto;image-rendering:auto;shape-rendering:auto;text-rendering:auto;enable-background:accumulate"
             d="m -1538.5222,559.74143 c -5.1425,0 -9.3393,4.19681 -9.3393,9.33926 0,5.14244 4.1968,9.33926 9.3393,9.33926 5.1424,0 9.3392,-4.19682 9.3392,-9.33926 0,-5.14245 -4.1968,-9.33926 -9.3392,-9.33926 z m 0,2.61449 c 3.7295,0 6.7247,2.99523 6.7247,6.72477 0,3.72953 -2.9952,6.72505 -6.7247,6.72505 -3.7296,0 -6.7251,-2.99552 -6.7251,-6.72505 0,-3.72954 2.9955,-6.72477 6.7251,-6.72477 z"
             id="path4199"
             inkscape:connector-curvature="0" />
        </g>
        <path
           style="fill:#008000;fill-opacity:0.76470588;stroke:#000000;stroke-width:2.32880926;stroke-miterlimit:4;stroke-dasharray:none"
           d="m -1383.8195,519.08138 c -5.6044,-1.53205 -10.4107,-5.89494 -12.1174,-11.50655 -0.4182,-1.50369 -1.956,-4.73509 0.8411,-4.45959 2.5386,0.33587 4.6739,0.45939 7.5739,1.28157 3.0941,1.16115 5.5614,1.99042 7.6157,4.97805 0.1723,0.24807 0.3831,0.57336 0.5974,0.96936 0.2142,0.39599 0.6482,1.29155 0.8373,1.82138 0.184,0.51529 0.7312,3.93564 0.1834,4.66079 -2.1846,-3.89282 -0.937,-1.52307 -3.3629,-4.07277 -1.0931,-1.14894 -3.2398,-2.10144 -4.2675,-2.41462 0.9911,1.16902 1.4312,1.59124 1.7859,1.90002 2.2246,1.86034 2.8051,3.73044 3.4794,6.59968 0.2621,1.34066 -2.1335,0.40892 -3.1663,0.24268 z"
           id="path4387"
           inkscape:connector-curvature="0"
           sodipodi:nodetypes="cccccsscscccc" />
        <g
           transform="translate(150.35714,-1.0714286)"
           id="g4237">
          <path
             id="path4448"
             d="m -1547.4467,547.93577 -6.0232,-2.55956 -1.228,2.72119 -1.2192,-0.44041 -3.2221,6.40589 1.5056,0.54322 -1.3882,3.07668 6.021,2.55964 1.6284,-3.60932 5.7611,2.29847 2.1931,-5.10234 -5.6668,-2.26193 1.6383,-3.63153 z"
             style="opacity:0.98799995;fill:#e3dbdb;fill-opacity:1;fill-rule:evenodd;stroke:none;stroke-width:0.60000002;stroke-linejoin:miter;stroke-miterlimit:4;stroke-dasharray:none;stroke-opacity:1"
             inkscape:connector-curvature="0" />
          <path
             style="color:#000000;font-style:normal;font-variant:normal;font-weight:normal;font-stretch:normal;font-size:medium;line-height:normal;font-family:sans-serif;text-indent:0;text-align:start;text-decoration:none;text-decoration-line:none;text-decoration-style:solid;text-decoration-color:#000000;letter-spacing:normal;word-spacing:normal;text-transform:none;direction:ltr;block-progression:tb;writing-mode:lr-tb;baseline-shift:baseline;text-anchor:start;white-space:normal;clip-rule:nonzero;display:inline;overflow:visible;visibility:visible;opacity:1;isolation:auto;mix-blend-mode:normal;color-interpolation:sRGB;color-interpolation-filters:linearRGB;solid-color:#000000;solid-opacity:1;fill:#000000;fill-opacity:1;fill-rule:nonzero;stroke:none;stroke-width:3.30582881;stroke-linecap:butt;stroke-linejoin:miter;stroke-miterlimit:4;stroke-dasharray:none;stroke-dashoffset:0;stroke-opacity:1;color-rendering:auto;image-rendering:auto;shape-rendering:auto;text-rendering:auto;enable-background:accumulate"
             d="m -1558.2397,559.35213 c -1.6135,-2.00021 -2.2451,-4.7661 -1.5467,-7.25328 0.2173,-1.24677 0.7576,-2.40967 1.5552,-3.38875 1.1602,-1.58557 2.8171,-2.86407 4.7731,-3.25843 1.6475,-0.37522 3.4452,-0.44752 5.0467,0.15411 0.9783,0.40739 1.6506,1.50072 1.3648,2.55909 -0.1888,0.94304 -0.7857,1.72583 -1.141,2.60457 1.4204,0.68208 2.9202,1.24647 4.2214,2.14417 0.881,0.77532 0.9857,2.12253 0.5207,3.14996 -0.5451,1.35443 -0.8883,2.9794 -2.1949,3.82953 -1.3687,0.84586 -3.0316,0.21015 -4.3461,-0.42613 -0.5885,-0.14991 -1.6965,-1.22787 -2.0116,-0.28328 -0.4168,1.0594 -0.8989,2.38877 -2.1574,2.65347 -1.4435,0.28153 -2.6657,-0.83206 -3.5512,-1.82738 -0.1846,-0.21344 -0.3606,-0.43424 -0.533,-0.65765 z m 3.4157,-0.0804 c 1.0484,0.29387 0.8745,-1.46655 1.1623,-2.12274 0.092,-0.8259 0.555,-1.99765 1.5861,-1.78287 1.2076,0.49187 2.356,1.13453 3.5433,1.67992 0.6283,0.13319 1.4377,1.03405 1.9831,0.44996 0.3847,-0.71151 0.6934,-1.48247 0.8824,-2.26794 -0.095,-0.97222 -1.4184,-1.02263 -2.0822,-1.51127 -1.092,-0.52487 -2.2046,-1.02682 -3.3038,-1.51684 -0.8031,-0.62164 0.2361,-1.46812 0.6012,-2.0229 0.4054,-0.6882 1.6483,-1.44181 1.1563,-2.30091 -1.0613,-0.36382 -2.2461,-0.29508 -3.337,-0.0771 -2.5272,0.49444 -4.5987,2.68798 -4.9201,5.24729 -0.3106,1.90845 0.3794,3.88661 1.7029,5.27755 0.3099,0.34825 0.6508,0.67002 1.0255,0.94788 z"
             id="path4204"
             inkscape:connector-curvature="0" />
        </g>
        <g
           transform="translate(153.21429,3.5714286)"
           id="g4211">
          <path
             inkscape:connector-curvature="0"
             style="opacity:0.98799995;fill:#e3dbdb;fill-opacity:1;fill-rule:evenodd;stroke:none;stroke-width:0.60000002;stroke-linejoin:miter;stroke-miterlimit:4;stroke-dasharray:none;stroke-opacity:1"
             d="m 166.16016,88.035156 -7.69141,2.541016 1.20703,3.591797 -1.49023,0.58789 2.53906,8.728521 1.83984,-0.72657 1.36524,4.06055 7.68945,-2.53906 -1.60156,-4.763675 7.22851,-2.572266 -2.36328,-6.644531 -7.11133,2.529297 -1.61132,-4.792969 z"
             transform="translate(-1718.8467,388.34039)"
             id="rect4441" />
          <path
             inkscape:connector-curvature="0"
             id="path256"
             d="m -1552.277,496.26516 c -3.339,-0.35733 -6.4782,-2.32936 -8.131,-5.27275 -0.9511,-1.35282 -1.5264,-2.92648 -1.6941,-4.56807 -0.393,-2.5371 -0.043,-5.24935 1.3995,-7.42097 1.1755,-1.86892 2.7698,-3.59683 4.8054,-4.52063 1.2804,-0.52752 2.9118,-0.1385 3.6256,1.10352 0.6969,1.04578 0.8687,2.32054 1.3523,3.4608 1.9427,-0.68224 3.8499,-1.54649 5.8817,-1.91937 1.5303,-0.0976 2.8719,1.05043 3.3916,2.42939 0.7478,1.75509 1.9321,3.57364 1.5103,5.56645 -0.4831,2.04618 -2.607,2.99533 -4.4095,3.62199 -0.6822,0.40518 -2.7019,0.43294 -2.1203,1.59688 0.5938,1.36394 1.3766,3.03775 0.4583,4.44513 -1.0736,1.59389 -3.2318,1.69427 -4.9696,1.59275 -0.3679,-0.0266 -0.7345,-0.068 -1.1002,-0.11512 z m 3.0818,-3.23031 c 1.2402,-0.69719 -0.5471,-2.16304 -0.8874,-3.0353 -0.6782,-0.84803 -1.333,-2.35856 -0.1818,-3.11287 1.5702,-0.66125 3.2252,-1.12861 4.8261,-1.72168 0.7036,-0.45748 2.2839,-0.373 2.2481,-1.4166 -0.302,-1.01283 -0.7291,-2.01044 -1.2802,-2.91086 -0.9863,-0.81032 -2.2554,0.36568 -3.3203,0.52757 -1.4939,0.52396 -2.9858,1.08824 -4.4542,1.65113 -1.3163,0.16759 -1.1383,-1.57473 -1.3135,-2.42468 -0.2614,-1.0104 0.1907,-2.85511 -1.0576,-3.19437 -1.3168,0.64447 -2.348,1.8027 -3.1546,3.01205 -1.8783,2.79196 -1.7655,6.73272 0.3023,9.39446 1.4764,2.05029 3.9416,3.24059 6.4498,3.30285 0.608,0.0355 1.2204,0.0178 1.8233,-0.0717 z"
             style="color:#000000;font-style:normal;font-variant:normal;font-weight:normal;font-stretch:normal;font-size:medium;line-height:normal;font-family:sans-serif;text-indent:0;text-align:start;text-decoration:none;text-decoration-line:none;text-decoration-style:solid;text-decoration-color:#000000;letter-spacing:normal;word-spacing:normal;text-transform:none;direction:ltr;block-progression:tb;writing-mode:lr-tb;baseline-shift:baseline;text-anchor:start;white-space:normal;clip-rule:nonzero;display:inline;overflow:visible;visibility:visible;opacity:1;isolation:auto;mix-blend-mode:normal;color-interpolation:sRGB;color-interpolation-filters:linearRGB;solid-color:#000000;solid-opacity:1;fill:#000000;fill-opacity:1;fill-rule:nonzero;stroke:none;stroke-width:3.30582881;stroke-linecap:butt;stroke-linejoin:miter;stroke-miterlimit:4;stroke-dasharray:none;stroke-dashoffset:0;stroke-opacity:1;color-rendering:auto;image-rendering:auto;shape-rendering:auto;text-rendering:auto;enable-background:accumulate" />
        </g>
        <g
           transform="translate(144.64286,5.7142857)"
           id="g4207">
          <circle
             style="opacity:0.98799995;fill:#860e00;fill-opacity:1;fill-rule:evenodd;stroke:none;stroke-width:0.60000002;stroke-linejoin:miter;stroke-miterlimit:4;stroke-dasharray:none;stroke-opacity:1"
             id="path4435"
             cx="-1572.6083"
             cy="496.74496"
             r="8.125" />
          <path
             style="color:#000000;font-style:normal;font-variant:normal;font-weight:normal;font-stretch:normal;font-size:medium;line-height:normal;font-family:sans-serif;text-indent:0;text-align:start;text-decoration:none;text-decoration-line:none;text-decoration-style:solid;text-decoration-color:#000000;letter-spacing:normal;word-spacing:normal;text-transform:none;direction:ltr;block-progression:tb;writing-mode:lr-tb;baseline-shift:baseline;text-anchor:start;white-space:normal;clip-rule:nonzero;display:inline;overflow:visible;visibility:visible;opacity:1;isolation:auto;mix-blend-mode:normal;color-interpolation:sRGB;color-interpolation-filters:linearRGB;solid-color:#000000;solid-opacity:1;fill:#000000;fill-opacity:1;fill-rule:nonzero;stroke:none;stroke-width:17.75499916;stroke-linecap:butt;stroke-linejoin:miter;stroke-miterlimit:4;stroke-dasharray:none;stroke-dashoffset:0;stroke-opacity:1;color-rendering:auto;image-rendering:auto;shape-rendering:auto;text-rendering:auto;enable-background:accumulate"
             d="m -1572.6083,487.31283 c -5.1936,0 -9.4321,4.23855 -9.4321,9.43212 0,5.19358 4.2385,9.43212 9.4321,9.43212 5.1936,0 9.4321,-4.23854 9.4321,-9.43212 0,-5.19357 -4.2385,-9.43212 -9.4321,-9.43212 z m 0,2.64049 c 3.7666,0 6.7916,3.02502 6.7916,6.79163 0,3.76662 -3.025,6.79192 -6.7916,6.79192 -3.7666,0 -6.7919,-3.0253 -6.7919,-6.79192 0,-3.76661 3.0253,-6.79163 6.7919,-6.79163 z"
             id="path4206"
             inkscape:connector-curvature="0" />
        </g>
        <path
           sodipodi:nodetypes="cccccsscscccc"
           inkscape:connector-curvature="0"
           id="path4222"
           d="m -1384.7075,547.49026 c 1.3377,-3.80765 4.5975,-6.92283 8.5698,-7.82887 1.0625,-0.21566 3.3772,-1.12189 3.0485,0.80261 -0.3579,1.74237 -0.5487,3.21582 -1.2613,5.1846 -0.957,2.08662 -1.6532,3.75528 -3.8245,5.03143 -0.1803,0.10718 -0.4161,0.2372 -0.701,0.36613 -0.285,0.12893 -0.9269,0.38552 -1.3033,0.49045 -0.3661,0.10205 -2.7629,0.31263 -3.2384,-0.10266 2.8049,-1.3218 1.1015,-0.57414 2.9877,-2.12935 0.8499,-0.7008 1.6157,-2.14121 1.8833,-2.83785 -0.8588,0.6291 -1.1731,0.91322 -1.4045,1.14374 -1.3986,1.44969 -2.723,1.75979 -4.7442,2.0856 -0.9419,0.11551 -0.1782,-1.49843 -0.012,-2.20583 z"
           style="fill:#318b00;fill-opacity:0.99607843;stroke:#000000;stroke-width:1.61765778;stroke-miterlimit:4;stroke-dasharray:none" />
        <g
           transform="translate(141.07143,-1.4285714)"
           id="g4203">
          <circle
             r="8.125"
             cy="529.7807"
             cx="-1546.5369"
             id="circle4201"
             style="opacity:0.98799995;fill:#860e00;fill-opacity:1;fill-rule:evenodd;stroke:none;stroke-width:0.60000002;stroke-linejoin:miter;stroke-miterlimit:4;stroke-dasharray:none;stroke-opacity:1" />
          <path
             style="color:#000000;font-style:normal;font-variant:normal;font-weight:normal;font-stretch:normal;font-size:medium;line-height:normal;font-family:sans-serif;text-indent:0;text-align:start;text-decoration:none;text-decoration-line:none;text-decoration-style:solid;text-decoration-color:#000000;letter-spacing:normal;word-spacing:normal;text-transform:none;direction:ltr;block-progression:tb;writing-mode:lr-tb;baseline-shift:baseline;text-anchor:start;white-space:normal;clip-rule:nonzero;display:inline;overflow:visible;visibility:visible;opacity:1;isolation:auto;mix-blend-mode:normal;color-interpolation:sRGB;color-interpolation-filters:linearRGB;solid-color:#000000;solid-opacity:1;fill:#000000;fill-opacity:1;fill-rule:nonzero;stroke:none;stroke-width:17.75499916;stroke-linecap:butt;stroke-linejoin:miter;stroke-miterlimit:4;stroke-dasharray:none;stroke-dashoffset:0;stroke-opacity:1;color-rendering:auto;image-rendering:auto;shape-rendering:auto;text-rendering:auto;enable-background:accumulate"
             d="m -1546.4204,520.45437 c -5.2276,0 -9.4939,4.26631 -9.4939,9.49391 0,5.2276 4.2663,9.49392 9.4939,9.49392 5.2276,0 9.494,-4.26632 9.494,-9.49392 0,-5.2276 -4.2664,-9.49391 -9.494,-9.49391 z m 0,2.65779 c 3.7913,0 6.8362,3.04483 6.8362,6.83612 0,3.79129 -3.0449,6.83641 -6.8362,6.83641 -3.7913,0 -6.8364,-3.04512 -6.8364,-6.83641 0,-3.79129 3.0451,-6.83612 6.8364,-6.83612 z"
             id="path4224"
             inkscape:connector-curvature="0" />
        </g>
        <g
           transform="matrix(-0.69639913,0.12193503,-0.12193503,-0.69639913,-2389.2877,1055.3062)"
           id="g4219">
          <path
             inkscape:connector-curvature="0"
             id="path4221"
             transform="translate(-1718.8467,388.34039)"
             d="m 166.16016,88.035156 -7.69141,2.541016 1.20703,3.591797 -1.49023,0.58789 2.53906,8.728521 1.83984,-0.72657 1.36524,4.06055 7.68945,-2.53906 -1.60156,-4.763675 7.22851,-2.572266 -2.36328,-6.644531 -7.11133,2.529297 -1.61132,-4.792969 z"
             style="opacity:0.98799995;fill:#e3dbdb;fill-opacity:1;fill-rule:evenodd;stroke:none;stroke-width:0.60000002;stroke-linejoin:miter;stroke-miterlimit:4;stroke-dasharray:none;stroke-opacity:1" />
          <path
             style="color:#000000;font-style:normal;font-variant:normal;font-weight:normal;font-stretch:normal;font-size:medium;line-height:normal;font-family:sans-serif;text-indent:0;text-align:start;text-decoration:none;text-decoration-line:none;text-decoration-style:solid;text-decoration-color:#000000;letter-spacing:normal;word-spacing:normal;text-transform:none;direction:ltr;block-progression:tb;writing-mode:lr-tb;baseline-shift:baseline;text-anchor:start;white-space:normal;clip-rule:nonzero;display:inline;overflow:visible;visibility:visible;opacity:1;isolation:auto;mix-blend-mode:normal;color-interpolation:sRGB;color-interpolation-filters:linearRGB;solid-color:#000000;solid-opacity:1;fill:#000000;fill-opacity:1;fill-rule:nonzero;stroke:none;stroke-width:3.30582881;stroke-linecap:butt;stroke-linejoin:miter;stroke-miterlimit:4;stroke-dasharray:none;stroke-dashoffset:0;stroke-opacity:1;color-rendering:auto;image-rendering:auto;shape-rendering:auto;text-rendering:auto;enable-background:accumulate"
             d="m -1552.277,496.26516 c -3.339,-0.35733 -6.4782,-2.32936 -8.131,-5.27275 -0.9511,-1.35282 -1.5264,-2.92648 -1.6941,-4.56807 -0.393,-2.5371 -0.043,-5.24935 1.3995,-7.42097 1.1755,-1.86892 2.7698,-3.59683 4.8054,-4.52063 1.2804,-0.52752 2.9118,-0.1385 3.6256,1.10352 0.6969,1.04578 0.8687,2.32054 1.3523,3.4608 1.9427,-0.68224 3.8499,-1.54649 5.8817,-1.91937 1.5303,-0.0976 2.8719,1.05043 3.3916,2.42939 0.7478,1.75509 1.9321,3.57364 1.5103,5.56645 -0.4831,2.04618 -2.607,2.99533 -4.4095,3.62199 -0.6822,0.40518 -2.7019,0.43294 -2.1203,1.59688 0.5938,1.36394 1.3766,3.03775 0.4583,4.44513 -1.0736,1.59389 -3.2318,1.69427 -4.9696,1.59275 -0.3679,-0.0266 -0.7345,-0.068 -1.1002,-0.11512 z m 3.0818,-3.23031 c 1.2402,-0.69719 -0.5471,-2.16304 -0.8874,-3.0353 -0.6782,-0.84803 -1.333,-2.35856 -0.1818,-3.11287 1.5702,-0.66125 3.2252,-1.12861 4.8261,-1.72168 0.7036,-0.45748 2.2839,-0.373 2.2481,-1.4166 -0.302,-1.01283 -0.7291,-2.01044 -1.2802,-2.91086 -0.9863,-0.81032 -2.2554,0.36568 -3.3203,0.52757 -1.4939,0.52396 -2.9858,1.08824 -4.4542,1.65113 -1.3163,0.16759 -1.1383,-1.57473 -1.3135,-2.42468 -0.2614,-1.0104 0.1907,-2.85511 -1.0576,-3.19437 -1.3168,0.64447 -2.348,1.8027 -3.1546,3.01205 -1.8783,2.79196 -1.7655,6.73272 0.3023,9.39446 1.4764,2.05029 3.9416,3.24059 6.4498,3.30285 0.608,0.0355 1.2204,0.0178 1.8233,-0.0717 z"
             id="path4223"
             inkscape:connector-curvature="0" />
        </g>
      </g>
      <g
         id="g4303">
        <path
           style="opacity:0.98000004;fill:#000000;fill-opacity:0.98823529;fill-rule:evenodd;stroke:none;stroke-width:1.29999995;stroke-linejoin:miter;stroke-miterlimit:4;stroke-dasharray:none;stroke-opacity:1"
           id="path4305"
           sodipodi:type="arc"
           sodipodi:cx="172.4032"
           sodipodi:cy="-1505.4338"
           sodipodi:rx="146.16376"
           sodipodi:ry="146.16585"
           sodipodi:start="0"
           sodipodi:end="1.0471976"
           d="m 318.56696,-1505.4338 a 146.16376,146.16585 0 0 1 -73.08189,126.5833 l -73.08187,-126.5833 z"
           transform="matrix(-0.50001077,-0.86601918,0.86603162,-0.49998923,0,0)" />
        <path
           transform="matrix(-0.50001077,-0.86601918,0.86603162,-0.49998923,0,0)"
           d="m 313.81931,-1501.5768 a 134.73543,134.73737 0 0 1 -67.36772,116.686 l -67.36771,-116.686 z"
           sodipodi:end="1.0471976"
           sodipodi:start="0"
           sodipodi:ry="134.73737"
           sodipodi:rx="134.73543"
           sodipodi:cy="-1501.5768"
           sodipodi:cx="179.08388"
           sodipodi:type="arc"
           id="path4307"
           style="opacity:0.98000004;fill:#ca7035;fill-opacity:1;fill-rule:evenodd;stroke:none;stroke-width:1.29999995;stroke-linejoin:miter;stroke-miterlimit:4;stroke-dasharray:none;stroke-opacity:1" />
        <path
           style="opacity:0.98000004;fill:#000000;fill-opacity:0.98823529;fill-rule:evenodd;stroke:none;stroke-width:1.29999995;stroke-linejoin:miter;stroke-miterlimit:4;stroke-dasharray:none;stroke-opacity:1"
           id="path4309"
           sodipodi:type="arc"
           sodipodi:cx="179.08388"
           sodipodi:cy="-1501.5768"
           sodipodi:rx="123.66391"
           sodipodi:ry="123.6657"
           sodipodi:start="0"
           sodipodi:end="1.0471976"
           d="m 302.74779,-1501.5768 a 123.66391,123.6657 0 0 1 -61.83196,107.0977 l -61.83195,-107.0977 z"
           transform="matrix(-0.50001077,-0.86601918,0.86603162,-0.49998923,0,0)" />
        <path
           style="opacity:0.98000004;fill:#d4aa00;fill-opacity:1;fill-rule:evenodd;stroke:none;stroke-width:1.29999995;stroke-linejoin:miter;stroke-miterlimit:4;stroke-dasharray:none;stroke-opacity:1"
           id="path4311"
           sodipodi:type="arc"
           sodipodi:cx="179.88805"
           sodipodi:cy="-1501.1125"
           sodipodi:rx="118.66389"
           sodipodi:ry="118.66559"
           sodipodi:start="0"
           sodipodi:end="1.0471976"
           d="m 298.55193,-1501.1125 a 118.66389,118.66559 0 0 1 -59.33195,102.7674 l -59.33193,-102.7674 z"
           transform="matrix(-0.50001077,-0.86601918,0.86603162,-0.49998923,0,0)" />
        <g
           id="g4313"
           transform="translate(160.71429,1.7857143)">
          <circle
             style="opacity:0.98799995;fill:#860e00;fill-opacity:1;fill-rule:evenodd;stroke:none;stroke-width:0.60000002;stroke-linejoin:miter;stroke-miterlimit:4;stroke-dasharray:none;stroke-opacity:1"
             id="circle4315"
             cx="-1516.1511"
             cy="496.00211"
             r="9.5535717" />
          <path
             style="color:#000000;font-style:normal;font-variant:normal;font-weight:normal;font-stretch:normal;font-size:medium;line-height:normal;font-family:sans-serif;text-indent:0;text-align:start;text-decoration:none;text-decoration-line:none;text-decoration-style:solid;text-decoration-color:#000000;letter-spacing:normal;word-spacing:normal;text-transform:none;direction:ltr;block-progression:tb;writing-mode:lr-tb;baseline-shift:baseline;text-anchor:start;white-space:normal;clip-rule:nonzero;display:inline;overflow:visible;visibility:visible;opacity:1;isolation:auto;mix-blend-mode:normal;color-interpolation:sRGB;color-interpolation-filters:linearRGB;solid-color:#000000;solid-opacity:1;fill:#000000;fill-opacity:1;fill-rule:nonzero;stroke:none;stroke-width:17.75499916;stroke-linecap:butt;stroke-linejoin:miter;stroke-miterlimit:4;stroke-dasharray:none;stroke-dashoffset:0;stroke-opacity:1;color-rendering:auto;image-rendering:auto;shape-rendering:auto;text-rendering:auto;enable-background:accumulate"
             d="m -1516.1511,484.3414 c -6.4207,0 -11.6607,5.24001 -11.6607,11.66069 0,6.42069 5.24,11.6607 11.6607,11.6607 6.4207,0 11.6607,-5.24001 11.6607,-11.6607 0,-6.42068 -5.24,-11.66069 -11.6607,-11.66069 z m 0,3.26438 c 4.6565,0 8.3963,3.73974 8.3963,8.39631 0,4.65658 -3.7398,8.39668 -8.3963,8.39668 -4.6566,0 -8.3967,-3.7401 -8.3967,-8.39668 0,-4.65657 3.7401,-8.39631 8.3967,-8.39631 z"
             id="path4317"
             inkscape:connector-curvature="0" />
        </g>
        <g
           id="g4319"
           transform="translate(150.71429,0.71428573)">
          <circle
             style="opacity:0.98799995;fill:#860e00;fill-opacity:1;fill-rule:evenodd;stroke:none;stroke-width:0.60000002;stroke-linejoin:miter;stroke-miterlimit:4;stroke-dasharray:none;stroke-opacity:1"
             id="circle4321"
             cx="-1538.5222"
             cy="569.08069"
             r="7.3214288" />
          <path
             inkscape:connector-curvature="0"
             id="path4323"
             d="m -1538.5222,559.74143 c -5.1425,0 -9.3393,4.19681 -9.3393,9.33926 0,5.14244 4.1968,9.33926 9.3393,9.33926 5.1424,0 9.3392,-4.19682 9.3392,-9.33926 0,-5.14245 -4.1968,-9.33926 -9.3392,-9.33926 z m 0,2.61449 c 3.7295,0 6.7247,2.99523 6.7247,6.72477 0,3.72953 -2.9952,6.72505 -6.7247,6.72505 -3.7296,0 -6.7251,-2.99552 -6.7251,-6.72505 0,-3.72954 2.9955,-6.72477 6.7251,-6.72477 z"
             style="color:#000000;font-style:normal;font-variant:normal;font-weight:normal;font-stretch:normal;font-size:medium;line-height:normal;font-family:sans-serif;text-indent:0;text-align:start;text-decoration:none;text-decoration-line:none;text-decoration-style:solid;text-decoration-color:#000000;letter-spacing:normal;word-spacing:normal;text-transform:none;direction:ltr;block-progression:tb;writing-mode:lr-tb;baseline-shift:baseline;text-anchor:start;white-space:normal;clip-rule:nonzero;display:inline;overflow:visible;visibility:visible;opacity:1;isolation:auto;mix-blend-mode:normal;color-interpolation:sRGB;color-interpolation-filters:linearRGB;solid-color:#000000;solid-opacity:1;fill:#000000;fill-opacity:1;fill-rule:nonzero;stroke:none;stroke-width:17.75499916;stroke-linecap:butt;stroke-linejoin:miter;stroke-miterlimit:4;stroke-dasharray:none;stroke-dashoffset:0;stroke-opacity:1;color-rendering:auto;image-rendering:auto;shape-rendering:auto;text-rendering:auto;enable-background:accumulate" />
        </g>
        <path
           sodipodi:nodetypes="cccccsscscccc"
           inkscape:connector-curvature="0"
           id="path4325"
           d="m -1383.8195,519.08138 c -5.6044,-1.53205 -10.4107,-5.89494 -12.1174,-11.50655 -0.4182,-1.50369 -1.956,-4.73509 0.8411,-4.45959 2.5386,0.33587 4.6739,0.45939 7.5739,1.28157 3.0941,1.16115 5.5614,1.99042 7.6157,4.97805 0.1723,0.24807 0.3831,0.57336 0.5974,0.96936 0.2142,0.39599 0.6482,1.29155 0.8373,1.82138 0.184,0.51529 0.7312,3.93564 0.1834,4.66079 -2.1846,-3.89282 -0.937,-1.52307 -3.3629,-4.07277 -1.0931,-1.14894 -3.2398,-2.10144 -4.2675,-2.41462 0.9911,1.16902 1.4312,1.59124 1.7859,1.90002 2.2246,1.86034 2.8051,3.73044 3.4794,6.59968 0.2621,1.34066 -2.1335,0.40892 -3.1663,0.24268 z"
           style="fill:#008000;fill-opacity:0.76470588;stroke:#000000;stroke-width:2.32880926;stroke-miterlimit:4;stroke-dasharray:none" />
        <g
           id="g4327"
           transform="translate(150.35714,-1.0714286)">
          <path
             inkscape:connector-curvature="0"
             style="opacity:0.98799995;fill:#e3dbdb;fill-opacity:1;fill-rule:evenodd;stroke:none;stroke-width:0.60000002;stroke-linejoin:miter;stroke-miterlimit:4;stroke-dasharray:none;stroke-opacity:1"
             d="m -1547.4467,547.93577 -6.0232,-2.55956 -1.228,2.72119 -1.2192,-0.44041 -3.2221,6.40589 1.5056,0.54322 -1.3882,3.07668 6.021,2.55964 1.6284,-3.60932 5.7611,2.29847 2.1931,-5.10234 -5.6668,-2.26193 1.6383,-3.63153 z"
             id="path4329" />
          <path
             inkscape:connector-curvature="0"
             id="path4331"
             d="m -1558.2397,559.35213 c -1.6135,-2.00021 -2.2451,-4.7661 -1.5467,-7.25328 0.2173,-1.24677 0.7576,-2.40967 1.5552,-3.38875 1.1602,-1.58557 2.8171,-2.86407 4.7731,-3.25843 1.6475,-0.37522 3.4452,-0.44752 5.0467,0.15411 0.9783,0.40739 1.6506,1.50072 1.3648,2.55909 -0.1888,0.94304 -0.7857,1.72583 -1.141,2.60457 1.4204,0.68208 2.9202,1.24647 4.2214,2.14417 0.881,0.77532 0.9857,2.12253 0.5207,3.14996 -0.5451,1.35443 -0.8883,2.9794 -2.1949,3.82953 -1.3687,0.84586 -3.0316,0.21015 -4.3461,-0.42613 -0.5885,-0.14991 -1.6965,-1.22787 -2.0116,-0.28328 -0.4168,1.0594 -0.8989,2.38877 -2.1574,2.65347 -1.4435,0.28153 -2.6657,-0.83206 -3.5512,-1.82738 -0.1846,-0.21344 -0.3606,-0.43424 -0.533,-0.65765 z m 3.4157,-0.0804 c 1.0484,0.29387 0.8745,-1.46655 1.1623,-2.12274 0.092,-0.8259 0.555,-1.99765 1.5861,-1.78287 1.2076,0.49187 2.356,1.13453 3.5433,1.67992 0.6283,0.13319 1.4377,1.03405 1.9831,0.44996 0.3847,-0.71151 0.6934,-1.48247 0.8824,-2.26794 -0.095,-0.97222 -1.4184,-1.02263 -2.0822,-1.51127 -1.092,-0.52487 -2.2046,-1.02682 -3.3038,-1.51684 -0.8031,-0.62164 0.2361,-1.46812 0.6012,-2.0229 0.4054,-0.6882 1.6483,-1.44181 1.1563,-2.30091 -1.0613,-0.36382 -2.2461,-0.29508 -3.337,-0.0771 -2.5272,0.49444 -4.5987,2.68798 -4.9201,5.24729 -0.3106,1.90845 0.3794,3.88661 1.7029,5.27755 0.3099,0.34825 0.6508,0.67002 1.0255,0.94788 z"
             style="color:#000000;font-style:normal;font-variant:normal;font-weight:normal;font-stretch:normal;font-size:medium;line-height:normal;font-family:sans-serif;text-indent:0;text-align:start;text-decoration:none;text-decoration-line:none;text-decoration-style:solid;text-decoration-color:#000000;letter-spacing:normal;word-spacing:normal;text-transform:none;direction:ltr;block-progression:tb;writing-mode:lr-tb;baseline-shift:baseline;text-anchor:start;white-space:normal;clip-rule:nonzero;display:inline;overflow:visible;visibility:visible;opacity:1;isolation:auto;mix-blend-mode:normal;color-interpolation:sRGB;color-interpolation-filters:linearRGB;solid-color:#000000;solid-opacity:1;fill:#000000;fill-opacity:1;fill-rule:nonzero;stroke:none;stroke-width:3.30582881;stroke-linecap:butt;stroke-linejoin:miter;stroke-miterlimit:4;stroke-dasharray:none;stroke-dashoffset:0;stroke-opacity:1;color-rendering:auto;image-rendering:auto;shape-rendering:auto;text-rendering:auto;enable-background:accumulate" />
        </g>
        <g
           id="g4333"
           transform="translate(153.21429,3.5714286)">
          <path
             id="path4335"
             transform="translate(-1718.8467,388.34039)"
             d="m 166.16016,88.035156 -7.69141,2.541016 1.20703,3.591797 -1.49023,0.58789 2.53906,8.728521 1.83984,-0.72657 1.36524,4.06055 7.68945,-2.53906 -1.60156,-4.763675 7.22851,-2.572266 -2.36328,-6.644531 -7.11133,2.529297 -1.61132,-4.792969 z"
             style="opacity:0.98799995;fill:#e3dbdb;fill-opacity:1;fill-rule:evenodd;stroke:none;stroke-width:0.60000002;stroke-linejoin:miter;stroke-miterlimit:4;stroke-dasharray:none;stroke-opacity:1"
             inkscape:connector-curvature="0" />
          <path
             style="color:#000000;font-style:normal;font-variant:normal;font-weight:normal;font-stretch:normal;font-size:medium;line-height:normal;font-family:sans-serif;text-indent:0;text-align:start;text-decoration:none;text-decoration-line:none;text-decoration-style:solid;text-decoration-color:#000000;letter-spacing:normal;word-spacing:normal;text-transform:none;direction:ltr;block-progression:tb;writing-mode:lr-tb;baseline-shift:baseline;text-anchor:start;white-space:normal;clip-rule:nonzero;display:inline;overflow:visible;visibility:visible;opacity:1;isolation:auto;mix-blend-mode:normal;color-interpolation:sRGB;color-interpolation-filters:linearRGB;solid-color:#000000;solid-opacity:1;fill:#000000;fill-opacity:1;fill-rule:nonzero;stroke:none;stroke-width:3.30582881;stroke-linecap:butt;stroke-linejoin:miter;stroke-miterlimit:4;stroke-dasharray:none;stroke-dashoffset:0;stroke-opacity:1;color-rendering:auto;image-rendering:auto;shape-rendering:auto;text-rendering:auto;enable-background:accumulate"
             d="m -1552.277,496.26516 c -3.339,-0.35733 -6.4782,-2.32936 -8.131,-5.27275 -0.9511,-1.35282 -1.5264,-2.92648 -1.6941,-4.56807 -0.393,-2.5371 -0.043,-5.24935 1.3995,-7.42097 1.1755,-1.86892 2.7698,-3.59683 4.8054,-4.52063 1.2804,-0.52752 2.9118,-0.1385 3.6256,1.10352 0.6969,1.04578 0.8687,2.32054 1.3523,3.4608 1.9427,-0.68224 3.8499,-1.54649 5.8817,-1.91937 1.5303,-0.0976 2.8719,1.05043 3.3916,2.42939 0.7478,1.75509 1.9321,3.57364 1.5103,5.56645 -0.4831,2.04618 -2.607,2.99533 -4.4095,3.62199 -0.6822,0.40518 -2.7019,0.43294 -2.1203,1.59688 0.5938,1.36394 1.3766,3.03775 0.4583,4.44513 -1.0736,1.59389 -3.2318,1.69427 -4.9696,1.59275 -0.3679,-0.0266 -0.7345,-0.068 -1.1002,-0.11512 z m 3.0818,-3.23031 c 1.2402,-0.69719 -0.5471,-2.16304 -0.8874,-3.0353 -0.6782,-0.84803 -1.333,-2.35856 -0.1818,-3.11287 1.5702,-0.66125 3.2252,-1.12861 4.8261,-1.72168 0.7036,-0.45748 2.2839,-0.373 2.2481,-1.4166 -0.302,-1.01283 -0.7291,-2.01044 -1.2802,-2.91086 -0.9863,-0.81032 -2.2554,0.36568 -3.3203,0.52757 -1.4939,0.52396 -2.9858,1.08824 -4.4542,1.65113 -1.3163,0.16759 -1.1383,-1.57473 -1.3135,-2.42468 -0.2614,-1.0104 0.1907,-2.85511 -1.0576,-3.19437 -1.3168,0.64447 -2.348,1.8027 -3.1546,3.01205 -1.8783,2.79196 -1.7655,6.73272 0.3023,9.39446 1.4764,2.05029 3.9416,3.24059 6.4498,3.30285 0.608,0.0355 1.2204,0.0178 1.8233,-0.0717 z"
             id="path4337"
             inkscape:connector-curvature="0" />
        </g>
        <g
           id="g4339"
           transform="translate(144.64286,5.7142857)">
          <circle
             r="8.125"
             cy="496.74496"
             cx="-1572.6083"
             id="circle4341"
             style="opacity:0.98799995;fill:#860e00;fill-opacity:1;fill-rule:evenodd;stroke:none;stroke-width:0.60000002;stroke-linejoin:miter;stroke-miterlimit:4;stroke-dasharray:none;stroke-opacity:1" />
          <path
             inkscape:connector-curvature="0"
             id="path4343"
             d="m -1572.6083,487.31283 c -5.1936,0 -9.4321,4.23855 -9.4321,9.43212 0,5.19358 4.2385,9.43212 9.4321,9.43212 5.1936,0 9.4321,-4.23854 9.4321,-9.43212 0,-5.19357 -4.2385,-9.43212 -9.4321,-9.43212 z m 0,2.64049 c 3.7666,0 6.7916,3.02502 6.7916,6.79163 0,3.76662 -3.025,6.79192 -6.7916,6.79192 -3.7666,0 -6.7919,-3.0253 -6.7919,-6.79192 0,-3.76661 3.0253,-6.79163 6.7919,-6.79163 z"
             style="color:#000000;font-style:normal;font-variant:normal;font-weight:normal;font-stretch:normal;font-size:medium;line-height:normal;font-family:sans-serif;text-indent:0;text-align:start;text-decoration:none;text-decoration-line:none;text-decoration-style:solid;text-decoration-color:#000000;letter-spacing:normal;word-spacing:normal;text-transform:none;direction:ltr;block-progression:tb;writing-mode:lr-tb;baseline-shift:baseline;text-anchor:start;white-space:normal;clip-rule:nonzero;display:inline;overflow:visible;visibility:visible;opacity:1;isolation:auto;mix-blend-mode:normal;color-interpolation:sRGB;color-interpolation-filters:linearRGB;solid-color:#000000;solid-opacity:1;fill:#000000;fill-opacity:1;fill-rule:nonzero;stroke:none;stroke-width:17.75499916;stroke-linecap:butt;stroke-linejoin:miter;stroke-miterlimit:4;stroke-dasharray:none;stroke-dashoffset:0;stroke-opacity:1;color-rendering:auto;image-rendering:auto;shape-rendering:auto;text-rendering:auto;enable-background:accumulate" />
        </g>
        <path
           style="fill:#318b00;fill-opacity:0.99607843;stroke:#000000;stroke-width:1.61765778;stroke-miterlimit:4;stroke-dasharray:none"
           d="m -1384.7075,547.49026 c 1.3377,-3.80765 4.5975,-6.92283 8.5698,-7.82887 1.0625,-0.21566 3.3772,-1.12189 3.0485,0.80261 -0.3579,1.74237 -0.5487,3.21582 -1.2613,5.1846 -0.957,2.08662 -1.6532,3.75528 -3.8245,5.03143 -0.1803,0.10718 -0.4161,0.2372 -0.701,0.36613 -0.285,0.12893 -0.9269,0.38552 -1.3033,0.49045 -0.3661,0.10205 -2.7629,0.31263 -3.2384,-0.10266 2.8049,-1.3218 1.1015,-0.57414 2.9877,-2.12935 0.8499,-0.7008 1.6157,-2.14121 1.8833,-2.83785 -0.8588,0.6291 -1.1731,0.91322 -1.4045,1.14374 -1.3986,1.44969 -2.723,1.75979 -4.7442,2.0856 -0.9419,0.11551 -0.1782,-1.49843 -0.012,-2.20583 z"
           id="path4345"
           inkscape:connector-curvature="0"
           sodipodi:nodetypes="cccccsscscccc" />
        <g
           id="g4347"
           transform="translate(141.07143,-1.4285714)">
          <circle
             style="opacity:0.98799995;fill:#860e00;fill-opacity:1;fill-rule:evenodd;stroke:none;stroke-width:0.60000002;stroke-linejoin:miter;stroke-miterlimit:4;stroke-dasharray:none;stroke-opacity:1"
             id="circle4349"
             cx="-1546.5369"
             cy="529.7807"
             r="8.125" />
          <path
             inkscape:connector-curvature="0"
             id="path4351"
             d="m -1546.4204,520.45437 c -5.2276,0 -9.4939,4.26631 -9.4939,9.49391 0,5.2276 4.2663,9.49392 9.4939,9.49392 5.2276,0 9.494,-4.26632 9.494,-9.49392 0,-5.2276 -4.2664,-9.49391 -9.494,-9.49391 z m 0,2.65779 c 3.7913,0 6.8362,3.04483 6.8362,6.83612 0,3.79129 -3.0449,6.83641 -6.8362,6.83641 -3.7913,0 -6.8364,-3.04512 -6.8364,-6.83641 0,-3.79129 3.0451,-6.83612 6.8364,-6.83612 z"
             style="color:#000000;font-style:normal;font-variant:normal;font-weight:normal;font-stretch:normal;font-size:medium;line-height:normal;font-family:sans-serif;text-indent:0;text-align:start;text-decoration:none;text-decoration-line:none;text-decoration-style:solid;text-decoration-color:#000000;letter-spacing:normal;word-spacing:normal;text-transform:none;direction:ltr;block-progression:tb;writing-mode:lr-tb;baseline-shift:baseline;text-anchor:start;white-space:normal;clip-rule:nonzero;display:inline;overflow:visible;visibility:visible;opacity:1;isolation:auto;mix-blend-mode:normal;color-interpolation:sRGB;color-interpolation-filters:linearRGB;solid-color:#000000;solid-opacity:1;fill:#000000;fill-opacity:1;fill-rule:nonzero;stroke:none;stroke-width:17.75499916;stroke-linecap:butt;stroke-linejoin:miter;stroke-miterlimit:4;stroke-dasharray:none;stroke-dashoffset:0;stroke-opacity:1;color-rendering:auto;image-rendering:auto;shape-rendering:auto;text-rendering:auto;enable-background:accumulate" />
        </g>
        <g
           id="g4353"
           transform="matrix(-0.69639913,0.12193503,-0.12193503,-0.69639913,-2389.2877,1055.3062)">
          <path
             style="opacity:0.98799995;fill:#e3dbdb;fill-opacity:1;fill-rule:evenodd;stroke:none;stroke-width:0.60000002;stroke-linejoin:miter;stroke-miterlimit:4;stroke-dasharray:none;stroke-opacity:1"
             d="m 166.16016,88.035156 -7.69141,2.541016 1.20703,3.591797 -1.49023,0.58789 2.53906,8.728521 1.83984,-0.72657 1.36524,4.06055 7.68945,-2.53906 -1.60156,-4.763675 7.22851,-2.572266 -2.36328,-6.644531 -7.11133,2.529297 -1.61132,-4.792969 z"
             transform="translate(-1718.8467,388.34039)"
             id="path4355"
             inkscape:connector-curvature="0" />
          <path
             inkscape:connector-curvature="0"
             id="path4357"
             d="m -1552.277,496.26516 c -3.339,-0.35733 -6.4782,-2.32936 -8.131,-5.27275 -0.9511,-1.35282 -1.5264,-2.92648 -1.6941,-4.56807 -0.393,-2.5371 -0.043,-5.24935 1.3995,-7.42097 1.1755,-1.86892 2.7698,-3.59683 4.8054,-4.52063 1.2804,-0.52752 2.9118,-0.1385 3.6256,1.10352 0.6969,1.04578 0.8687,2.32054 1.3523,3.4608 1.9427,-0.68224 3.8499,-1.54649 5.8817,-1.91937 1.5303,-0.0976 2.8719,1.05043 3.3916,2.42939 0.7478,1.75509 1.9321,3.57364 1.5103,5.56645 -0.4831,2.04618 -2.607,2.99533 -4.4095,3.62199 -0.6822,0.40518 -2.7019,0.43294 -2.1203,1.59688 0.5938,1.36394 1.3766,3.03775 0.4583,4.44513 -1.0736,1.59389 -3.2318,1.69427 -4.9696,1.59275 -0.3679,-0.0266 -0.7345,-0.068 -1.1002,-0.11512 z m 3.0818,-3.23031 c 1.2402,-0.69719 -0.5471,-2.16304 -0.8874,-3.0353 -0.6782,-0.84803 -1.333,-2.35856 -0.1818,-3.11287 1.5702,-0.66125 3.2252,-1.12861 4.8261,-1.72168 0.7036,-0.45748 2.2839,-0.373 2.2481,-1.4166 -0.302,-1.01283 -0.7291,-2.01044 -1.2802,-2.91086 -0.9863,-0.81032 -2.2554,0.36568 -3.3203,0.52757 -1.4939,0.52396 -2.9858,1.08824 -4.4542,1.65113 -1.3163,0.16759 -1.1383,-1.57473 -1.3135,-2.42468 -0.2614,-1.0104 0.1907,-2.85511 -1.0576,-3.19437 -1.3168,0.64447 -2.348,1.8027 -3.1546,3.01205 -1.8783,2.79196 -1.7655,6.73272 0.3023,9.39446 1.4764,2.05029 3.9416,3.24059 6.4498,3.30285 0.608,0.0355 1.2204,0.0178 1.8233,-0.0717 z"
             style="color:#000000;font-style:normal;font-variant:normal;font-weight:normal;font-stretch:normal;font-size:medium;line-height:normal;font-family:sans-serif;text-indent:0;text-align:start;text-decoration:none;text-decoration-line:none;text-decoration-style:solid;text-decoration-color:#000000;letter-spacing:normal;word-spacing:normal;text-transform:none;direction:ltr;block-progression:tb;writing-mode:lr-tb;baseline-shift:baseline;text-anchor:start;white-space:normal;clip-rule:nonzero;display:inline;overflow:visible;visibility:visible;opacity:1;isolation:auto;mix-blend-mode:normal;color-interpolation:sRGB;color-interpolation-filters:linearRGB;solid-color:#000000;solid-opacity:1;fill:#000000;fill-opacity:1;fill-rule:nonzero;stroke:none;stroke-width:3.30582881;stroke-linecap:butt;stroke-linejoin:miter;stroke-miterlimit:4;stroke-dasharray:none;stroke-dashoffset:0;stroke-opacity:1;color-rendering:auto;image-rendering:auto;shape-rendering:auto;text-rendering:auto;enable-background:accumulate" />
        </g>
      </g>
    </g>
  </g>
</svg>
