<?xml version="1.0" encoding="UTF-8" standalone="no"?>
<!-- Created with Inkscape (http://www.inkscape.org/) -->

<svg
   xmlns:dc="http://purl.org/dc/elements/1.1/"
   xmlns:cc="http://creativecommons.org/ns#"
   xmlns:rdf="http://www.w3.org/1999/02/22-rdf-syntax-ns#"
   xmlns:svg="http://www.w3.org/2000/svg"
   xmlns="http://www.w3.org/2000/svg"
   xmlns:sodipodi="http://sodipodi.sourceforge.net/DTD/sodipodi-0.dtd"
   xmlns:inkscape="http://www.inkscape.org/namespaces/inkscape"
   width="22"
   height="22"
   viewBox="0 0 22 22"
   id="svg2"
   version="1.1"
   inkscape:version="0.91 r13725"
   sodipodi:docname="plus.svg"
   inkscape:export-filename="/var/www/html/PolitosPizza/public/img/plus.png"
   inkscape:export-xdpi="90"
   inkscape:export-ydpi="90">
  <defs
     id="defs4" />
  <sodipodi:namedview
     id="base"
     pagecolor="#ffffff"
     bordercolor="#666666"
     borderopacity="1.0"
     inkscape:pageopacity="0.0"
     inkscape:pageshadow="2"
     inkscape:zoom="22.4"
     inkscape:cx="21.789756"
     inkscape:cy="5.20585"
     inkscape:document-units="px"
     inkscape:current-layer="layer1"
     showgrid="false"
     units="px"
     inkscape:window-width="1920"
     inkscape:window-height="1047"
     inkscape:window-x="0"
     inkscape:window-y="0"
     inkscape:window-maximized="1" />
  <metadata
     id="metadata7">
    <rdf:RDF>
      <cc:Work
         rdf:about="">
        <dc:format>image/svg+xml</dc:format>
        <dc:type
           rdf:resource="http://purl.org/dc/dcmitype/StillImage" />
        <dc:title />
      </cc:Work>
    </rdf:RDF>
  </metadata>
  <g
     inkscape:label="Layer 1"
     inkscape:groupmode="layer"
     id="layer1"
     transform="translate(0,-1030.3621)">
    <circle
       style="opacity:1;fill:#75ab14;fill-opacity:1;stroke:none;stroke-width:9.60000038;stroke-miterlimit:4;stroke-dasharray:none;stroke-opacity:1"
       id="path4136"
       cx="11"
       cy="1041.3621"
       r="10" />
    <path
       style="opacity:1;fill:#ffffff;fill-opacity:1;stroke:none;stroke-width:9.60000038;stroke-miterlimit:4;stroke-dasharray:none;stroke-opacity:1"
       d="M 10.992188 4.3085938 C 9.9802875 4.3085938 9.1660156 5.1227656 9.1660156 6.1347656 L 9.1660156 9.1660156 L 6.1347656 9.1660156 C 5.1227688 9.1660156 4.3085938 9.9802875 4.3085938 10.992188 L 4.3085938 11.007812 C 4.3085938 12.019712 5.1227688 12.833984 6.1347656 12.833984 L 9.1660156 12.833984 L 9.1660156 15.865234 C 9.1660156 16.877234 9.9802875 17.693359 10.992188 17.693359 L 11.007812 17.693359 C 12.019713 17.693359 12.833984 16.877234 12.833984 15.865234 L 12.833984 12.833984 L 15.865234 12.833984 C 16.877231 12.833984 17.691406 12.019712 17.691406 11.007812 L 17.691406 10.992188 C 17.691406 9.9802875 16.877231 9.1660156 15.865234 9.1660156 L 12.833984 9.1660156 L 12.833984 6.1347656 C 12.833984 5.1227656 12.019712 4.3085938 11.007812 4.3085938 L 10.992188 4.3085938 z "
       transform="translate(0,1030.3621)"
       id="rect4138" />
  </g>
</svg>
