<?xml version="1.0" encoding="UTF-8" standalone="no"?>
<!-- Created with Inkscape (http://www.inkscape.org/) -->

<svg
   xmlns:dc="http://purl.org/dc/elements/1.1/"
   xmlns:cc="http://creativecommons.org/ns#"
   xmlns:rdf="http://www.w3.org/1999/02/22-rdf-syntax-ns#"
   xmlns:svg="http://www.w3.org/2000/svg"
   xmlns="http://www.w3.org/2000/svg"
   xmlns:sodipodi="http://sodipodi.sourceforge.net/DTD/sodipodi-0.dtd"
   xmlns:inkscape="http://www.inkscape.org/namespaces/inkscape"
   width="56.444443mm"
   height="42.419971mm"
   viewBox="0 0 199.99999 150.30698"
   id="svg2"
   version="1.1"
   inkscape:version="0.91 r13725"
   sodipodi:docname="pp_logo_font.svg">
  <defs
     id="defs4">
    <inkscape:path-effect
       vertical="false"
       scale_y_rel="false"
       prop_scale="1"
       bendpath="m -591.55728,-175.71202 155.03665,0"
       is_visible="true"
       id="path-effect4197"
       effect="bend_path" />
  </defs>
  <sodipodi:namedview
     id="base"
     pagecolor="#b8b8b8"
     bordercolor="#666666"
     borderopacity="1.0"
     inkscape:pageopacity="0"
     inkscape:pageshadow="2"
     inkscape:zoom="1.979899"
     inkscape:cx="-82.917243"
     inkscape:cy="-52.59488"
     inkscape:document-units="px"
     inkscape:current-layer="g4198"
     showgrid="false"
     showborder="false"
     fit-margin-top="0"
     fit-margin-left="0"
     fit-margin-right="0"
     fit-margin-bottom="0"
     inkscape:window-width="1920"
     inkscape:window-height="1047"
     inkscape:window-x="0"
     inkscape:window-y="0"
     inkscape:window-maximized="1" />
  <metadata
     id="metadata7">
    <rdf:RDF>
      <cc:Work
         rdf:about="">
        <dc:format>image/svg+xml</dc:format>
        <dc:type
           rdf:resource="http://purl.org/dc/dcmitype/StillImage" />
        <dc:title />
      </cc:Work>
    </rdf:RDF>
  </metadata>
  <g
     inkscape:label="Layer 1"
     inkscape:groupmode="layer"
     id="layer1"
     transform="translate(-533.92005,315.29419)">
    <g
       transform="translate(2229.9181,-808.91056)"
       id="layer1-3"
       inkscape:label="Layer 1">
      <g
         id="g6510">
        <g
           id="g6447">
          <text
             inkscape:export-ydpi="90"
             inkscape:export-xdpi="90"
             inkscape:export-filename="/media/dries/VDAB-DRIESH/V.HTML/TestWebsite/Img/Plogo_klein_header2.png"
             sodipodi:linespacing="125%"
             id="text4147"
             y="465.25851"
             x="-1374.4512"
             style="font-style:normal;font-variant:normal;font-weight:normal;font-stretch:normal;font-size:7.35391235px;line-height:125%;font-family:Pacifico;-inkscape-font-specification:Pacifico;letter-spacing:0px;word-spacing:0px;fill:#000000;fill-opacity:1;stroke:none;stroke-width:1px;stroke-linecap:butt;stroke-linejoin:miter;stroke-opacity:1"
             xml:space="preserve"><tspan
               y="465.25851"
               x="-1374.4512"
               id="tspan4149"
               sodipodi:role="line" /></text>
          <text
             inkscape:export-ydpi="90"
             inkscape:export-xdpi="90"
             inkscape:export-filename="/media/dries/VDAB-DRIESH/V.HTML/TestWebsite/Img/Plogo_klein_header2.png"
             sodipodi:linespacing="125%"
             id="text4151"
             y="630.17279"
             x="-1374.8225"
             style="font-style:normal;font-variant:normal;font-weight:normal;font-stretch:normal;font-size:7.35391235px;line-height:125%;font-family:Pacifico;-inkscape-font-specification:Pacifico;letter-spacing:0px;word-spacing:0px;fill:#000000;fill-opacity:1;stroke:none;stroke-width:1px;stroke-linecap:butt;stroke-linejoin:miter;stroke-opacity:1"
             xml:space="preserve"><tspan
               y="630.17279"
               x="-1374.8225"
               id="tspan4153"
               sodipodi:role="line" /></text>
          <g
             id="g4198"
             transform="matrix(0.65878366,0,0,0.65878366,-578.70228,219.71717)">
            <path
               sodipodi:type="star"
               style="opacity:1;fill:#d4ddcd;fill-opacity:1;stroke:none;stroke-width:18;stroke-linecap:round;stroke-linejoin:round;stroke-miterlimit:4;stroke-dasharray:none;stroke-dashoffset:0;stroke-opacity:1"
               id="path4328"
               sodipodi:sides="6"
               sodipodi:cx="-15.240258"
               sodipodi:cy="-132.90759"
               sodipodi:r1="115.57163"
               sodipodi:r2="100.08796"
               sodipodi:arg1="0.53550312"
               sodipodi:arg2="1.0591019"
               inkscape:flatsided="true"
               inkscape:rounded="1.42594e-15"
               inkscape:randomized="3.59088e-16"
               d="m 84.152734,-73.934418 -100.768764,56.590269 -99.39299,-58.973176 1.37577,-115.563445 100.768764,-56.59027 99.392992,58.97318 z"
               transform="matrix(0.97164654,0,0,0.97373119,-1529.3957,659.26046)" />
            <path
               sodipodi:nodetypes="cscssscccc"
               inkscape:connector-curvature="0"
               id="path4450"
               d="m -1596.0942,480.35627 c 16.241,-7.00796 34.6415,-9.25159 51.8777,-9.3039 11.0529,-0.0335 33.1126,4.08155 33.1126,4.08155 0,0 -0.5533,4.31689 1.7733,7.13825 1.4552,1.76449 5.2667,1.56023 7.2457,3.623 1.4868,1.54979 0.933,5.24284 2.5686,6.65466 1.9735,1.70353 6.1561,1.06435 8.1438,2.14479 l 3.4625,3.60125 -55.5324,103.63082 z"
               style="opacity:0.98799995;fill:#d4aa00;fill-opacity:1;fill-rule:evenodd;stroke:none;stroke-width:0.60000002;stroke-linejoin:miter;stroke-miterlimit:4;stroke-dasharray:none;stroke-opacity:1" />
            <circle
               style="opacity:0.98799995;fill:#860e00;fill-opacity:1;fill-rule:evenodd;stroke:none;stroke-width:0.60000002;stroke-linejoin:miter;stroke-miterlimit:4;stroke-dasharray:none;stroke-opacity:1"
               id="circle4437"
               cx="-1516.1511"
               cy="496.00211"
               r="9.5535717" />
            <path
               style="color:#000000;font-style:normal;font-variant:normal;font-weight:normal;font-stretch:normal;font-size:medium;line-height:normal;font-family:sans-serif;text-indent:0;text-align:start;text-decoration:none;text-decoration-line:none;text-decoration-style:solid;text-decoration-color:#000000;letter-spacing:normal;word-spacing:normal;text-transform:none;direction:ltr;block-progression:tb;writing-mode:lr-tb;baseline-shift:baseline;text-anchor:start;white-space:normal;clip-rule:nonzero;display:inline;overflow:visible;visibility:visible;opacity:1;isolation:auto;mix-blend-mode:normal;color-interpolation:sRGB;color-interpolation-filters:linearRGB;solid-color:#000000;solid-opacity:1;fill:#000000;fill-opacity:1;fill-rule:nonzero;stroke:none;stroke-width:17.75499916;stroke-linecap:butt;stroke-linejoin:miter;stroke-miterlimit:4;stroke-dasharray:none;stroke-dashoffset:0;stroke-opacity:1;color-rendering:auto;image-rendering:auto;shape-rendering:auto;text-rendering:auto;enable-background:accumulate"
               d="m -1516.1511,484.3414 c -6.4207,0 -11.6607,5.24001 -11.6607,11.66069 0,6.42069 5.24,11.6607 11.6607,11.6607 6.4207,0 11.6607,-5.24001 11.6607,-11.6607 0,-6.42068 -5.24,-11.66069 -11.6607,-11.66069 z m 0,3.26438 c 4.6565,0 8.3963,3.73974 8.3963,8.39631 0,4.65658 -3.7398,8.39668 -8.3963,8.39668 -4.6566,0 -8.3967,-3.7401 -8.3967,-8.39668 0,-4.65657 3.7401,-8.39631 8.3967,-8.39631 z"
               id="circle4161"
               inkscape:connector-curvature="0" />
            <circle
               style="opacity:0.98799995;fill:#860e00;fill-opacity:1;fill-rule:evenodd;stroke:none;stroke-width:0.60000002;stroke-linejoin:miter;stroke-miterlimit:4;stroke-dasharray:none;stroke-opacity:1"
               id="circle4439"
               cx="-1538.5222"
               cy="569.08069"
               r="7.3214288" />
            <path
               inkscape:connector-curvature="0"
               id="path4199"
               d="m -1538.5222,559.74143 c -5.1425,0 -9.3393,4.19681 -9.3393,9.33926 0,5.14244 4.1968,9.33926 9.3393,9.33926 5.1424,0 9.3392,-4.19682 9.3392,-9.33926 0,-5.14245 -4.1968,-9.33926 -9.3392,-9.33926 z m 0,2.61449 c 3.7295,0 6.7247,2.99523 6.7247,6.72477 0,3.72953 -2.9952,6.72505 -6.7247,6.72505 -3.7296,0 -6.7251,-2.99552 -6.7251,-6.72505 0,-3.72954 2.9955,-6.72477 6.7251,-6.72477 z"
               style="color:#000000;font-style:normal;font-variant:normal;font-weight:normal;font-stretch:normal;font-size:medium;line-height:normal;font-family:sans-serif;text-indent:0;text-align:start;text-decoration:none;text-decoration-line:none;text-decoration-style:solid;text-decoration-color:#000000;letter-spacing:normal;word-spacing:normal;text-transform:none;direction:ltr;block-progression:tb;writing-mode:lr-tb;baseline-shift:baseline;text-anchor:start;white-space:normal;clip-rule:nonzero;display:inline;overflow:visible;visibility:visible;opacity:1;isolation:auto;mix-blend-mode:normal;color-interpolation:sRGB;color-interpolation-filters:linearRGB;solid-color:#000000;solid-opacity:1;fill:#000000;fill-opacity:1;fill-rule:nonzero;stroke:none;stroke-width:17.75499916;stroke-linecap:butt;stroke-linejoin:miter;stroke-miterlimit:4;stroke-dasharray:none;stroke-dashoffset:0;stroke-opacity:1;color-rendering:auto;image-rendering:auto;shape-rendering:auto;text-rendering:auto;enable-background:accumulate" />
            <path
               sodipodi:nodetypes="cccccsscscccc"
               inkscape:connector-curvature="0"
               id="path6439"
               d="m -1535.2481,514.79567 c -5.6044,-1.53205 -10.4107,-5.89494 -12.1174,-11.50655 -0.4182,-1.50369 -1.956,-4.73509 0.8411,-4.45959 2.5386,0.33587 4.6739,0.45939 7.5739,1.28157 3.0941,1.16115 5.5614,1.99042 7.6157,4.97805 0.1723,0.24807 0.3831,0.57336 0.5974,0.96936 0.2142,0.39599 0.6482,1.29155 0.8373,1.82138 0.184,0.51529 0.7312,3.93564 0.1834,4.66079 -2.1846,-3.89282 -0.937,-1.52307 -3.3629,-4.07277 -1.0931,-1.14894 -3.2398,-2.10144 -4.2675,-2.41462 0.9911,1.16902 1.4312,1.59124 1.7859,1.90002 2.2246,1.86034 2.8051,3.73044 3.4794,6.59968 0.2621,1.34066 -2.1335,0.40892 -3.1663,0.24268 z"
               style="fill:#57bf4c;fill-opacity:0.76470588;stroke:none;stroke-width:2.32880926;stroke-miterlimit:4;stroke-dasharray:none" />
            <path
               inkscape:connector-curvature="0"
               id="path4387"
               d="m -1546.4102,497.66992 c -0.9098,-0.0896 -1.8258,0.12616 -2.375,0.77735 -0.5492,0.65118 -0.5827,1.41784 -0.5253,2.05078 0.1146,1.26588 0.6541,2.49919 0.8222,3.10351 l 0,0.0137 0,0.0137 c 1.8349,6.0331 6.9424,10.65339 12.9258,12.28906 l 0.061,0.0176 0.06,0.01 c 0.3189,0.0513 1.2324,0.34033 2.1113,0.44922 0.4395,0.0544 0.9025,0.12671 1.5078,-0.16601 0.3027,-0.14636 0.6351,-0.45135 0.7911,-0.82813 0.156,-0.37678 0.1463,-0.75129 0.084,-1.07031 l 0,-0.0215 -0.01,-0.0215 c -0.2932,-1.24758 -0.6469,-2.33511 -1.0918,-3.38281 0,0 0,0.004 0,0.004 0,-0.002 0.2154,0.26216 1.3047,2.20313 l 0.8711,1.55273 1.0742,-1.42187 c 0.4585,-0.60697 0.4333,-1.08123 0.4609,-1.60157 0.028,-0.52033 10e-5,-1.07258 -0.049,-1.61328 -0.049,-0.54069 -0.1197,-1.06409 -0.1934,-1.49804 -0.074,-0.43396 -0.1126,-0.70013 -0.2343,-1.04102 -0.2391,-0.66981 -0.6596,-1.52112 -0.9102,-1.98437 -0.2384,-0.44049 -0.472,-0.80033 -0.6621,-1.07422 l 0,-0.004 c -2.2434,-3.25947 -5.0895,-4.2512 -8.1621,-5.4043 l -0.045,-0.0176 -0.047,-0.0137 c -3.0149,-0.85474 -5.2471,-0.98485 -7.7383,-1.31445 l -0.019,-0.004 -0.02,-0.002 z m -0.5937,2.2793 c -0.057,0.0677 -0.011,0.0146 0.3262,0.0352 2.573,0.34042 4.6092,0.46124 7.373,1.24023 3.0788,1.15391 5.1579,1.83015 7.0098,4.52344 l 0,0.004 0,0.002 c 0.1541,0.22183 0.3401,0.50973 0.5293,0.85937 0.1778,0.32872 0.6265,1.26836 0.7656,1.6582 -0.026,-0.0722 0.053,0.24645 0.1133,0.56055 -0.3135,-0.21335 -0.4085,-0.17277 -1.3535,-1.16601 -1.3964,-1.46767 -3.5466,-2.35328 -4.7715,-2.72657 l -3.7891,-1.15429 2.5625,3.02148 c 1.0116,1.19323 1.5168,1.68465 1.9082,2.02539 l 0.01,0.008 0.01,0.006 c 1.763,1.47429 2.2833,2.92675 2.8398,5.14453 -0.4493,-0.0956 -0.9469,-0.22313 -1.4726,-0.31835 -5.2239,-1.42805 -9.7289,-5.52868 -11.3086,-10.7168 -4e-4,-10e-4 0,-0.003 0,-0.004 -0.2512,-0.89516 -0.6793,-2.01344 -0.7382,-2.66406 -0.03,-0.32844 0.05,-0.41368 -0.014,-0.33789 z"
               style="color:#000000;font-style:normal;font-variant:normal;font-weight:normal;font-stretch:normal;font-size:medium;line-height:normal;font-family:sans-serif;text-indent:0;text-align:start;text-decoration:none;text-decoration-line:none;text-decoration-style:solid;text-decoration-color:#000000;letter-spacing:normal;word-spacing:normal;text-transform:none;direction:ltr;block-progression:tb;writing-mode:lr-tb;baseline-shift:baseline;text-anchor:start;white-space:normal;clip-rule:nonzero;display:inline;overflow:visible;visibility:visible;opacity:1;isolation:auto;mix-blend-mode:normal;color-interpolation:sRGB;color-interpolation-filters:linearRGB;solid-color:#000000;solid-opacity:1;fill:#000000;fill-opacity:1;fill-rule:nonzero;stroke:none;stroke-width:2.32880926;stroke-linecap:butt;stroke-linejoin:miter;stroke-miterlimit:4;stroke-dasharray:none;stroke-dashoffset:0;stroke-opacity:1;color-rendering:auto;image-rendering:auto;shape-rendering:auto;text-rendering:auto;enable-background:accumulate" />
            <path
               inkscape:connector-curvature="0"
               style="opacity:0.98799995;fill:#e4e4e4;fill-opacity:1;fill-rule:evenodd;stroke:none;stroke-width:0.60000002;stroke-linejoin:miter;stroke-miterlimit:4;stroke-dasharray:none;stroke-opacity:1"
               d="m -1548.3357,549.04543 -5.3701,-2.36816 -1.0949,2.5177 -1.0869,-0.40747 -2.8728,5.92687 1.3423,0.5026 -1.2376,2.84661 5.3681,2.36824 1.4519,-3.33942 5.1363,2.12659 1.9554,-4.72079 -5.0524,-2.09279 1.4607,-3.35998 z"
               id="path4448" />
            <path
               inkscape:connector-curvature="0"
               id="path4204"
               d="m -1558.2397,559.35213 c -1.6135,-2.00021 -2.2451,-4.7661 -1.5467,-7.25328 0.2173,-1.24677 0.7576,-2.40967 1.5552,-3.38875 1.1602,-1.58557 2.8171,-2.86407 4.7731,-3.25843 1.6475,-0.37522 3.4452,-0.44752 5.0467,0.15411 0.9783,0.40739 1.6506,1.50072 1.3648,2.55909 -0.1888,0.94304 -0.7857,1.72583 -1.141,2.60457 1.4204,0.68208 2.9202,1.24647 4.2214,2.14417 0.881,0.77532 0.9857,2.12253 0.5207,3.14996 -0.5451,1.35443 -0.8883,2.9794 -2.1949,3.82953 -1.3687,0.84586 -3.0316,0.21015 -4.3461,-0.42613 -0.5885,-0.14991 -1.6965,-1.22787 -2.0116,-0.28328 -0.4168,1.0594 -0.8989,2.38877 -2.1574,2.65347 -1.4435,0.28153 -2.6657,-0.83206 -3.5512,-1.82738 -0.1846,-0.21344 -0.3606,-0.43424 -0.533,-0.65765 z m 3.4157,-0.0804 c 1.0484,0.29387 0.8745,-1.46655 1.1623,-2.12274 0.092,-0.8259 0.555,-1.99765 1.5861,-1.78287 1.2076,0.49187 2.356,1.13453 3.5433,1.67992 0.6283,0.13319 1.4377,1.03405 1.9831,0.44996 0.3847,-0.71151 0.6934,-1.48247 0.8824,-2.26794 -0.095,-0.97222 -1.4184,-1.02263 -2.0822,-1.51127 -1.092,-0.52487 -2.2046,-1.02682 -3.3038,-1.51684 -0.8031,-0.62164 0.2361,-1.46812 0.6012,-2.0229 0.4054,-0.6882 1.6483,-1.44181 1.1563,-2.30091 -1.0613,-0.36382 -2.2461,-0.29508 -3.337,-0.0771 -2.5272,0.49444 -4.5987,2.68798 -4.9201,5.24729 -0.3106,1.90845 0.3794,3.88661 1.7029,5.27755 0.3099,0.34825 0.6508,0.67002 1.0255,0.94788 z"
               style="color:#000000;font-style:normal;font-variant:normal;font-weight:normal;font-stretch:normal;font-size:medium;line-height:normal;font-family:sans-serif;text-indent:0;text-align:start;text-decoration:none;text-decoration-line:none;text-decoration-style:solid;text-decoration-color:#000000;letter-spacing:normal;word-spacing:normal;text-transform:none;direction:ltr;block-progression:tb;writing-mode:lr-tb;baseline-shift:baseline;text-anchor:start;white-space:normal;clip-rule:nonzero;display:inline;overflow:visible;visibility:visible;opacity:1;isolation:auto;mix-blend-mode:normal;color-interpolation:sRGB;color-interpolation-filters:linearRGB;solid-color:#000000;solid-opacity:1;fill:#000000;fill-opacity:1;fill-rule:nonzero;stroke:none;stroke-width:3.30582881;stroke-linecap:butt;stroke-linejoin:miter;stroke-miterlimit:4;stroke-dasharray:none;stroke-dashoffset:0;stroke-opacity:1;color-rendering:auto;image-rendering:auto;shape-rendering:auto;text-rendering:auto;enable-background:accumulate" />
            <path
               sodipodi:nodetypes="cscscscscc"
               inkscape:connector-curvature="0"
               id="rect4453"
               d="m -1600.6324,469.02657 c 0,0 30.313,-8.5544 45.8929,-8.92858 27.6798,-0.66478 43.9285,2.85715 43.9285,2.85715 0,0 -0.12,2.43617 0.2167,3.97477 0.2905,1.32752 2.7316,3.89177 2.7316,3.89177 0,0 -1.7567,1.31891 -2.1427,1.96545 -0.4365,0.73108 -1.3633,2.67436 -1.3633,2.67436 0,0 -15.9139,-4.83774 -44.1748,-4.02421 -14.1893,0.40845 -40.8036,7.41071 -40.8036,7.41071 z"
               style="opacity:0.98799995;fill:#c97036;fill-opacity:0.90196078;fill-rule:evenodd;stroke:none;stroke-width:0.60000002;stroke-linejoin:miter;stroke-miterlimit:4;stroke-dasharray:none;stroke-opacity:1" />
            <path
               id="rect4441"
               d="m -1552.6865,476.37555 -7.6915,2.54101 1.2071,3.5918 -1.4903,0.58789 2.5391,8.72852 1.8398,-0.72657 1.3653,4.06055 7.6894,-2.53906 -1.6015,-4.76367 7.2285,-2.57227 -2.3633,-6.64453 -7.1113,2.5293 -1.6113,-4.79297 z"
               style="opacity:0.98799995;fill:#e3e3e1;fill-opacity:1;fill-rule:evenodd;stroke:none;stroke-width:0.60000002;stroke-linejoin:miter;stroke-miterlimit:4;stroke-dasharray:none;stroke-opacity:1"
               inkscape:connector-curvature="0" />
            <path
               style="color:#000000;font-style:normal;font-variant:normal;font-weight:normal;font-stretch:normal;font-size:medium;line-height:normal;font-family:sans-serif;text-indent:0;text-align:start;text-decoration:none;text-decoration-line:none;text-decoration-style:solid;text-decoration-color:#000000;letter-spacing:normal;word-spacing:normal;text-transform:none;direction:ltr;block-progression:tb;writing-mode:lr-tb;baseline-shift:baseline;text-anchor:start;white-space:normal;clip-rule:nonzero;display:inline;overflow:visible;visibility:visible;opacity:1;isolation:auto;mix-blend-mode:normal;color-interpolation:sRGB;color-interpolation-filters:linearRGB;solid-color:#000000;solid-opacity:1;fill:#000000;fill-opacity:1;fill-rule:nonzero;stroke:none;stroke-width:3.30582881;stroke-linecap:butt;stroke-linejoin:miter;stroke-miterlimit:4;stroke-dasharray:none;stroke-dashoffset:0;stroke-opacity:1;color-rendering:auto;image-rendering:auto;shape-rendering:auto;text-rendering:auto;enable-background:accumulate"
               d="m -1552.277,496.26516 c -3.339,-0.35733 -6.4782,-2.32936 -8.131,-5.27275 -0.9511,-1.35282 -1.5264,-2.92648 -1.6941,-4.56807 -0.393,-2.5371 -0.043,-5.24935 1.3995,-7.42097 1.1755,-1.86892 2.7698,-3.59683 4.8054,-4.52063 1.2804,-0.52752 2.9118,-0.1385 3.6256,1.10352 0.6969,1.04578 0.8687,2.32054 1.3523,3.4608 1.9427,-0.68224 3.8499,-1.54649 5.8817,-1.91937 1.5303,-0.0976 2.8719,1.05043 3.3916,2.42939 0.7478,1.75509 1.9321,3.57364 1.5103,5.56645 -0.4831,2.04618 -2.607,2.99533 -4.4095,3.62199 -0.6822,0.40518 -2.7019,0.43294 -2.1203,1.59688 0.5938,1.36394 1.3766,3.03775 0.4583,4.44513 -1.0736,1.59389 -3.2318,1.69427 -4.9696,1.59275 -0.3679,-0.0266 -0.7345,-0.068 -1.1002,-0.11512 z m 3.0818,-3.23031 c 1.2402,-0.69719 -0.5471,-2.16304 -0.8874,-3.0353 -0.6782,-0.84803 -1.333,-2.35856 -0.1818,-3.11287 1.5702,-0.66125 3.2252,-1.12861 4.8261,-1.72168 0.7036,-0.45748 2.2839,-0.373 2.2481,-1.4166 -0.302,-1.01283 -0.7291,-2.01044 -1.2802,-2.91086 -0.9863,-0.81032 -2.2554,0.36568 -3.3203,0.52757 -1.4939,0.52396 -2.9858,1.08824 -4.4542,1.65113 -1.3163,0.16759 -1.1383,-1.57473 -1.3135,-2.42468 -0.2614,-1.0104 0.1907,-2.85511 -1.0576,-3.19437 -1.3168,0.64447 -2.348,1.8027 -3.1546,3.01205 -1.8783,2.79196 -1.7655,6.73272 0.3023,9.39446 1.4764,2.05029 3.9416,3.24059 6.4498,3.30285 0.608,0.0355 1.2204,0.0178 1.8233,-0.0717 z"
               id="path256"
               inkscape:connector-curvature="0" />
            <circle
               r="8.125"
               cy="496.74496"
               cx="-1572.6083"
               id="path4435"
               style="opacity:0.98799995;fill:#860e00;fill-opacity:1;fill-rule:evenodd;stroke:none;stroke-width:0.60000002;stroke-linejoin:miter;stroke-miterlimit:4;stroke-dasharray:none;stroke-opacity:1" />
            <path
               inkscape:connector-curvature="0"
               id="path4206"
               d="m -1572.6083,487.31283 c -5.1936,0 -9.4321,4.23855 -9.4321,9.43212 0,5.19358 4.2385,9.43212 9.4321,9.43212 5.1936,0 9.4321,-4.23854 9.4321,-9.43212 0,-5.19357 -4.2385,-9.43212 -9.4321,-9.43212 z m 0,2.64049 c 3.7666,0 6.7916,3.02502 6.7916,6.79163 0,3.76662 -3.025,6.79192 -6.7916,6.79192 -3.7666,0 -6.7919,-3.0253 -6.7919,-6.79192 0,-3.76661 3.0253,-6.79163 6.7919,-6.79163 z"
               style="color:#000000;font-style:normal;font-variant:normal;font-weight:normal;font-stretch:normal;font-size:medium;line-height:normal;font-family:sans-serif;text-indent:0;text-align:start;text-decoration:none;text-decoration-line:none;text-decoration-style:solid;text-decoration-color:#000000;letter-spacing:normal;word-spacing:normal;text-transform:none;direction:ltr;block-progression:tb;writing-mode:lr-tb;baseline-shift:baseline;text-anchor:start;white-space:normal;clip-rule:nonzero;display:inline;overflow:visible;visibility:visible;opacity:1;isolation:auto;mix-blend-mode:normal;color-interpolation:sRGB;color-interpolation-filters:linearRGB;solid-color:#000000;solid-opacity:1;fill:#000000;fill-opacity:1;fill-rule:nonzero;stroke:none;stroke-width:17.75499916;stroke-linecap:butt;stroke-linejoin:miter;stroke-miterlimit:4;stroke-dasharray:none;stroke-dashoffset:0;stroke-opacity:1;color-rendering:auto;image-rendering:auto;shape-rendering:auto;text-rendering:auto;enable-background:accumulate" />
            <path
               sodipodi:nodetypes="cccccsscscccc"
               inkscape:connector-curvature="0"
               id="path4222"
               d="m -1567.9218,519.63312 c 1.3377,-3.80765 4.5975,-6.92283 8.5698,-7.82887 1.0625,-0.21566 3.3772,-1.12189 3.0485,0.80261 -0.3579,1.74237 -0.5487,3.21582 -1.2613,5.1846 -0.957,2.08662 -1.6532,3.75528 -3.8245,5.03143 -0.1803,0.10718 -0.4161,0.2372 -0.701,0.36613 -0.285,0.12893 -0.9269,0.38552 -1.3033,0.49045 -0.3661,0.10205 -2.7629,0.31263 -3.2384,-0.10266 2.8049,-1.3218 1.1015,-0.57414 2.9877,-2.12935 0.8499,-0.7008 1.6157,-2.14121 1.8833,-2.83785 -0.8588,0.6291 -1.1731,0.91322 -1.4045,1.14374 -1.3986,1.44969 -2.723,1.75979 -4.7442,2.0856 -0.9419,0.11551 -0.1782,-1.49843 -0.012,-2.20583 z"
               style="fill:none;fill-opacity:0.76470588;stroke:#000000;stroke-width:1.61765778;stroke-miterlimit:4;stroke-dasharray:none" />
            <path
               inkscape:connector-curvature="0"
               id="path6435"
               d="m -1446.0555,472.12946 -97.4019,-56.14368 a 1.6547959,1.6547959 0 0 0 -1.655,0.002 l -97.3215,56.28078 a 1.6547959,1.6547959 0 0 0 -0.827,1.43273 l 0.08,112.42575 a 1.6547959,1.6547959 0 0 0 0.8293,1.43188 l 97.4019,56.14368 a 1.6547959,1.6547959 0 0 0 1.655,-0.002 l 97.3216,-56.28073 a 1.6547959,1.6547959 0 0 0 0.8264,-1.43483 l -0.079,-112.42366 a 1.6547959,1.6547959 0 0 0 -0.8294,-1.43192 z m -2.4805,2.39021 0.078,110.51486 -95.668,55.3233 -95.7454,-55.18947 -0.079,-110.51356 95.6687,-55.32459 95.7455,55.18946 z"
               style="color:#000000;font-style:normal;font-variant:normal;font-weight:normal;font-stretch:normal;font-size:medium;line-height:normal;font-family:sans-serif;text-indent:0;text-align:start;text-decoration:none;text-decoration-line:none;text-decoration-style:solid;text-decoration-color:#000000;letter-spacing:normal;word-spacing:normal;text-transform:none;direction:ltr;block-progression:tb;writing-mode:lr-tb;baseline-shift:baseline;text-anchor:start;white-space:normal;clip-rule:nonzero;display:inline;overflow:visible;visibility:visible;opacity:1;isolation:auto;mix-blend-mode:normal;color-interpolation:sRGB;color-interpolation-filters:linearRGB;solid-color:#000000;solid-opacity:1;fill:#000000;fill-opacity:1;fill-rule:nonzero;stroke:none;stroke-width:4.27112675;stroke-linecap:round;stroke-linejoin:round;stroke-miterlimit:4;stroke-dasharray:none;stroke-dashoffset:0;stroke-opacity:1;color-rendering:auto;image-rendering:auto;shape-rendering:auto;text-rendering:auto;enable-background:accumulate" />
            <path
               inkscape:connector-curvature="0"
               id="path4224"
               d="m -1546.4204,520.45437 c -5.2276,0 -9.4939,4.26631 -9.4939,9.49391 0,5.2276 4.2663,9.49392 9.4939,9.49392 5.2276,0 9.494,-4.26632 9.494,-9.49392 0,-5.2276 -4.2664,-9.49391 -9.494,-9.49391 z m 0,2.65779 c 3.7913,0 6.8362,3.04483 6.8362,6.83612 0,3.79129 -3.0449,6.83641 -6.8362,6.83641 -3.7913,0 -6.8364,-3.04512 -6.8364,-6.83641 0,-3.79129 3.0451,-6.83612 6.8364,-6.83612 z"
               style="color:#000000;font-style:normal;font-variant:normal;font-weight:normal;font-stretch:normal;font-size:medium;line-height:normal;font-family:sans-serif;text-indent:0;text-align:start;text-decoration:none;text-decoration-line:none;text-decoration-style:solid;text-decoration-color:#000000;letter-spacing:normal;word-spacing:normal;text-transform:none;direction:ltr;block-progression:tb;writing-mode:lr-tb;baseline-shift:baseline;text-anchor:start;white-space:normal;clip-rule:nonzero;display:inline;overflow:visible;visibility:visible;opacity:1;isolation:auto;mix-blend-mode:normal;color-interpolation:sRGB;color-interpolation-filters:linearRGB;solid-color:#000000;solid-opacity:1;fill:#000000;fill-opacity:1;fill-rule:nonzero;stroke:none;stroke-width:17.75499916;stroke-linecap:butt;stroke-linejoin:miter;stroke-miterlimit:4;stroke-dasharray:none;stroke-dashoffset:0;stroke-opacity:1;color-rendering:auto;image-rendering:auto;shape-rendering:auto;text-rendering:auto;enable-background:accumulate" />
            <path
               style="color:#000000;font-style:normal;font-variant:normal;font-weight:normal;font-stretch:normal;font-size:medium;line-height:normal;font-family:sans-serif;text-indent:0;text-align:start;text-decoration:none;text-decoration-line:none;text-decoration-style:solid;text-decoration-color:#000000;letter-spacing:normal;word-spacing:normal;text-transform:none;direction:ltr;block-progression:tb;writing-mode:lr-tb;baseline-shift:baseline;text-anchor:start;white-space:normal;clip-rule:nonzero;display:inline;overflow:visible;visibility:visible;opacity:1;isolation:auto;mix-blend-mode:normal;color-interpolation:sRGB;color-interpolation-filters:linearRGB;solid-color:#000000;solid-opacity:1;fill:#000000;fill-opacity:1;fill-rule:nonzero;stroke:none;stroke-width:3.30582881;stroke-linecap:butt;stroke-linejoin:miter;stroke-miterlimit:4;stroke-dasharray:none;stroke-dashoffset:0;stroke-opacity:1;color-rendering:auto;image-rendering:auto;shape-rendering:auto;text-rendering:auto;enable-background:accumulate"
               d="m -1519.8076,518.88968 c 2.5632,-0.18526 5.1956,0.87267 6.8409,2.8644 0.9004,0.88937 1.5478,1.99619 1.8975,3.20964 0.6412,1.85719 0.7469,3.94734 -0.044,5.77911 -0.6309,1.56744 -1.5964,3.08566 -3.0037,4.05837 -0.8925,0.57151 -2.174,0.50053 -2.8806,-0.33768 -0.6671,-0.69273 -0.97,-1.62937 -1.4893,-2.42228 -1.3702,0.77815 -2.6889,1.68854 -4.1683,2.24584 -1.1392,0.28174 -2.3057,-0.40026 -2.8848,-1.36802 -0.802,-1.21998 -1.9413,-2.42836 -1.8949,-3.98653 0.085,-1.60669 1.5557,-2.61051 2.8279,-3.32772 0.4586,-0.39798 1.9759,-0.69373 1.3795,-1.49114 -0.6328,-0.94637 -1.45,-2.10038 -0.9501,-3.28522 0.5917,-1.34645 2.2034,-1.71573 3.5259,-1.87575 0.2806,-0.03 0.5624,-0.0487 0.8442,-0.063 z m -1.8813,2.85209 c -0.8391,0.69382 0.7063,1.55452 1.0814,2.1651 0.6261,0.54636 1.3248,1.59482 0.5605,2.31953 -1.0926,0.71166 -2.2753,1.28883 -3.4002,1.95333 -0.4677,0.44026 -1.6693,0.59169 -1.5003,1.37274 0.3653,0.72166 0.8227,1.41484 1.3602,2.01794 0.853,0.47603 1.6488,-0.58231 2.4287,-0.84914 1.0538,-0.59788 2.1005,-1.22584 3.1297,-1.84958 0.9686,-0.30533 1.0716,1.03103 1.3192,1.64726 0.3343,0.72537 0.2449,2.17612 1.2312,2.26174 0.9039,-0.66453 1.5229,-1.67711 1.9658,-2.69762 1.0345,-2.3582 0.4133,-5.3106 -1.5061,-7.03376 -1.3908,-1.34314 -3.4094,-1.90408 -5.3067,-1.60966 -0.4628,0.056 -0.9215,0.15269 -1.3634,0.30212 z"
               id="path4226"
               inkscape:connector-curvature="0" />
            <path
               style="color:#000000;font-style:normal;font-variant:normal;font-weight:normal;font-stretch:normal;font-size:medium;line-height:normal;font-family:sans-serif;text-indent:0;text-align:start;text-decoration:none;text-decoration-line:none;text-decoration-style:solid;text-decoration-color:#000000;letter-spacing:normal;word-spacing:normal;text-transform:none;direction:ltr;block-progression:tb;writing-mode:lr-tb;baseline-shift:baseline;text-anchor:start;white-space:normal;clip-rule:nonzero;display:inline;overflow:visible;visibility:visible;opacity:1;isolation:auto;mix-blend-mode:normal;color-interpolation:sRGB;color-interpolation-filters:linearRGB;solid-color:#000000;solid-opacity:1;fill:#000000;fill-opacity:1;fill-rule:nonzero;stroke:none;stroke-width:17.75499916;stroke-linecap:butt;stroke-linejoin:miter;stroke-miterlimit:4;stroke-dasharray:none;stroke-dashoffset:0;stroke-opacity:1;color-rendering:auto;image-rendering:auto;shape-rendering:auto;text-rendering:auto;enable-background:accumulate"
               d="m -1528.2982,537.52595 c -3.9984,0 -7.2615,3.26311 -7.2615,7.26148 0,3.99836 3.2631,7.26147 7.2615,7.26147 3.9983,0 7.2615,-3.26311 7.2615,-7.26147 0,-3.99837 -3.2632,-7.26148 -7.2615,-7.26148 z m 0,2.03283 c 2.8998,0 5.2286,2.32885 5.2286,5.22865 0,2.89979 -2.3288,5.22886 -5.2286,5.22886 -2.8998,0 -5.2289,-2.32907 -5.2289,-5.22886 0,-2.8998 2.3291,-5.22865 5.2289,-5.22865 z"
               id="path4228"
               inkscape:connector-curvature="0" />
            <path
               inkscape:connector-curvature="0"
               id="path4138"
               d="m -1538.374,458.06197 c -22.2546,-0.80406 -44.4223,2.37492 -65.1904,9.34869 l 60.0019,138.73043 56.6308,-106.35407 c 0.6091,-1.18871 1.2295,-2.39127 1.4757,-2.87006 0,0 -3.9705,1.06382 -5.8674,-4.88191 -0.701,0.51108 -0.7389,0.4998 -1.5519,0.70936 -4.51,1.34106 -8.4924,-1.02651 -7.9768,-8.42035 0.019,-0.38644 0.068,-0.7708 0.1468,-1.14952 -3.737,0.39694 -6.8957,1.55704 -8.9549,-2.64514 -2.2714,-5.38502 1.0979,-7.0434 3.8762,-9.87283 -2.2805,-1.06987 -4.2829,-3.44731 -4.1816,-5.9642 0.042,-1.04892 0.3403,-2.02712 0.8316,-2.87695 -0.7769,-0.32347 -1.2823,-0.48663 -2.9694,-0.7459 -8.6599,-1.62094 -17.4445,-2.62664 -26.2706,-3.00755 z m -0.054,2.60182 c 8.4953,0.361 16.9497,1.33872 25.2793,2.92336 -0.073,0.35757 -0.1175,0.7203 -0.1336,1.08485 -0.1131,2.81153 1.47,5.41694 4.0174,6.61191 -0.7187,0.59478 -1.3202,1.30199 -1.7923,2.084 -9.7496,-2.54209 -19.6725,-3.63101 -29.1377,-3.81213 -29.5434,-0.56531 -54.4214,7.64089 -55.8566,8.12293 l -3.5636,-8.24017 c 19.4927,-6.54556 40.2991,-9.52937 61.1871,-8.77475 z m 1.1552,12.37255 c 8.0026,0.35112 16.2429,1.40852 24.3082,3.51145 0.2106,4.19632 3.9331,9.54465 8.2129,9.71692 0.5597,0.0194 1.12,-0.0184 1.672,-0.113 -0.088,0.42317 -0.1432,0.85265 -0.164,1.28445 -0.1828,4.53275 3.7376,7.89579 8.2703,8.0785 0.8488,0.0309 1.6973,-0.0701 2.5152,-0.29936 0.5266,1.47924 1.5358,2.73818 2.865,3.57411 l -53.7051,100.8599 -51.5758,-119.01955 c 4.2073,-1.32668 29.4063,-8.83045 57.6013,-7.59342 z"
               style="opacity:1;fill:#000000;fill-opacity:1;stroke:#000000;stroke-width:0.32228523;stroke-linecap:butt;stroke-linejoin:miter;stroke-miterlimit:4;stroke-dasharray:none;stroke-dashoffset:0;stroke-opacity:1"
               sodipodi:nodetypes="ccccccccccccccccccccscccscccccccccs" />
            <g
               style="fill:#c63d0f;fill-opacity:1"
               id="g5190">
              <g
                 style="stroke:none"
                 id="g6421">
                <path
                   sodipodi:nodetypes="ccccccc"
                   inkscape:connector-curvature="0"
                   id="path6423"
                   d="m -1673.8201,509.83339 9.1924,20.01086 -9.1924,20.01087 259.1647,0 -9.1924,-20.01087 9.1924,-20.01086 z"
                   style="opacity:1;fill:#c63d0f;fill-opacity:1;stroke:none;stroke-width:3.26421785;stroke-linecap:butt;stroke-linejoin:miter;stroke-miterlimit:4;stroke-dasharray:none;stroke-dashoffset:0;stroke-opacity:1" />
                <path
                   sodipodi:nodetypes="ccccccc"
                   inkscape:connector-curvature="0"
                   id="path6425"
                   style="fill:#c63d0f;fill-opacity:1;fill-rule:nonzero;stroke:none;stroke-width:3.26421809;stroke-miterlimit:4;stroke-dasharray:none"
                   d="m -1402.3767,529.84314 7.4231,-16.21034 -15.5893,0 -7.4251,16.21034 7.4251,16.21034 15.5912,0.002 z" />
                <path
                   d="m -1686.0309,529.84314 -7.4231,-16.21034 15.5893,0 7.4251,16.21034 -7.4251,16.21034 -15.5912,0.002 z"
                   style="fill:#c63d0f;fill-opacity:1;fill-rule:nonzero;stroke:none;stroke-width:3.26421809;stroke-miterlimit:4;stroke-dasharray:none"
                   id="path6427"
                   inkscape:connector-curvature="0"
                   sodipodi:nodetypes="ccccccc" />
              </g>
              <g
                 id="g6416">
                <path
                   inkscape:connector-curvature="0"
                   id="rect4267"
                   d="m -1676.3652,508.20117 1.0625,2.31445 8.8789,19.32813 -9.9414,21.64258 264.2558,0 -9.9414,-21.64258 9.9414,-21.64258 -264.2558,0 z m 5.0898,3.26367 254.0742,0 -8.4433,18.37891 8.4433,18.37891 -254.0742,0 8.4434,-18.37891 -8.4434,-18.37891 z"
                   style="color:#000000;font-style:normal;font-variant:normal;font-weight:normal;font-stretch:normal;font-size:medium;line-height:normal;font-family:sans-serif;text-indent:0;text-align:start;text-decoration:none;text-decoration-line:none;text-decoration-style:solid;text-decoration-color:#000000;letter-spacing:normal;word-spacing:normal;text-transform:none;direction:ltr;block-progression:tb;writing-mode:lr-tb;baseline-shift:baseline;text-anchor:start;white-space:normal;clip-rule:nonzero;display:inline;overflow:visible;visibility:visible;opacity:1;isolation:auto;mix-blend-mode:normal;color-interpolation:sRGB;color-interpolation-filters:linearRGB;solid-color:#000000;solid-opacity:1;fill:#000000;fill-opacity:1;fill-rule:nonzero;stroke:none;stroke-width:3.26421785;stroke-linecap:butt;stroke-linejoin:miter;stroke-miterlimit:4;stroke-dasharray:none;stroke-dashoffset:0;stroke-opacity:1;color-rendering:auto;image-rendering:auto;shape-rendering:auto;text-rendering:auto;enable-background:accumulate" />
                <path
                   inkscape:connector-curvature="0"
                   id="path1370"
                   d="m -1411.5898,512 -8.1739,17.84375 8.1739,17.8418 19.1816,0.002 -8.1738,-17.84375 8.1718,-17.84375 -19.1796,0 z m 2.0937,3.26562 12,0 -6.6758,14.57813 0.3106,0.67969 6.3672,13.90039 -12.002,-0.002 -6.6758,-14.57813 6.6758,-14.57813 z"
                   style="color:#000000;font-style:normal;font-variant:normal;font-weight:normal;font-stretch:normal;font-size:medium;line-height:normal;font-family:sans-serif;text-indent:0;text-align:start;text-decoration:none;text-decoration-line:none;text-decoration-style:solid;text-decoration-color:#000000;letter-spacing:normal;word-spacing:normal;text-transform:none;direction:ltr;block-progression:tb;writing-mode:lr-tb;baseline-shift:baseline;text-anchor:start;white-space:normal;clip-rule:nonzero;display:inline;overflow:visible;visibility:visible;opacity:1;isolation:auto;mix-blend-mode:normal;color-interpolation:sRGB;color-interpolation-filters:linearRGB;solid-color:#000000;solid-opacity:1;fill:#000000;fill-opacity:1;fill-rule:nonzero;stroke:none;stroke-width:3.26421809;stroke-linecap:butt;stroke-linejoin:miter;stroke-miterlimit:4;stroke-dasharray:none;stroke-dashoffset:0;stroke-opacity:1;color-rendering:auto;image-rendering:auto;shape-rendering:auto;text-rendering:auto;enable-background:accumulate" />
                <path
                   inkscape:connector-curvature="0"
                   id="path4334"
                   d="m -1695.9961,512 8.1699,17.84375 -8.1718,17.84375 19.1816,-0.002 8.1719,-17.8418 -8.1719,-17.84375 -19.1797,0 z m 5.084,3.26562 12,0 6.6777,14.57813 -6.6777,14.57813 -12.002,0.002 6.6778,-14.58008 -0.3106,-0.67969 -6.3652,-13.89844 z"
                   style="color:#000000;font-style:normal;font-variant:normal;font-weight:normal;font-stretch:normal;font-size:medium;line-height:normal;font-family:sans-serif;text-indent:0;text-align:start;text-decoration:none;text-decoration-line:none;text-decoration-style:solid;text-decoration-color:#000000;letter-spacing:normal;word-spacing:normal;text-transform:none;direction:ltr;block-progression:tb;writing-mode:lr-tb;baseline-shift:baseline;text-anchor:start;white-space:normal;clip-rule:nonzero;display:inline;overflow:visible;visibility:visible;opacity:1;isolation:auto;mix-blend-mode:normal;color-interpolation:sRGB;color-interpolation-filters:linearRGB;solid-color:#000000;solid-opacity:1;fill:#000000;fill-opacity:1;fill-rule:nonzero;stroke:none;stroke-width:3.26421809;stroke-linecap:butt;stroke-linejoin:miter;stroke-miterlimit:4;stroke-dasharray:none;stroke-dashoffset:0;stroke-opacity:1;color-rendering:auto;image-rendering:auto;shape-rendering:auto;text-rendering:auto;enable-background:accumulate" />
              </g>
            </g>
            <g
               id="flowRoot4380"
               style="font-style:normal;font-variant:normal;font-weight:normal;font-stretch:normal;font-size:90px;line-height:125%;font-family:Daniel;-inkscape-font-specification:Daniel;letter-spacing:0px;word-spacing:0px;fill:#000000;fill-opacity:1;stroke:none;stroke-width:1px;stroke-linecap:butt;stroke-linejoin:miter;stroke-opacity:1"
               transform="matrix(0.23674426,0,0,0.26808636,-1277.9811,511.55773)">
              <path
                 id="path4183"
                 style="font-style:normal;font-variant:normal;font-weight:normal;font-stretch:normal;font-size:90px;font-family:Bungee;-inkscape-font-specification:Bungee"
                 d="m -1491.8285,100.61133 -13.95,0 q -1.71,0 -2.52,-0.720002 -0.72,-0.81 -0.72,-2.52 l 0,-58.32 q 0,-1.71 0.72,-2.43 0.81,-0.81 2.52,-0.81 l 27.54,0 q 12.24,0 16.74,4.86 4.5,4.86 4.5,12.69 l 0,11.52 q 0,7.83 -4.5,12.69 -4.5,4.86 -16.74,4.86 l -10.35,0 0,14.94 q 0,1.71 -0.81,2.52 -0.72,0.720002 -2.43,0.720002 z m 3.06,-47.970002 0,13.59 8.1,0 q 2.61,0 3.42,-1.35 0.81,-1.35 0.81,-3.06 l 0,-4.77 q 0,-1.71 -0.81,-3.06 -0.81,-1.35 -3.42,-1.35 l -8.1,0 z"
                 inkscape:connector-curvature="0" />
              <path
                 id="path4185"
                 style="font-style:normal;font-variant:normal;font-weight:normal;font-stretch:normal;font-size:90px;font-family:Bungee;-inkscape-font-specification:Bungee"
                 d="m -1392.7709,83.601328 q 0,4.14 -1.26,7.56 -1.17,3.33 -4.32,5.76 -3.06,2.34 -8.55,3.690002 -5.4,1.35 -13.77,1.35 -8.37,0 -13.86,-1.35 -5.49,-1.350002 -8.64,-3.690002 -3.06,-2.43 -4.32,-5.76 -1.17,-3.42 -1.17,-7.56 l 0,-30.69 q 0,-4.14 1.17,-7.47 1.26,-3.42 4.32,-5.85 3.15,-2.43 8.64,-3.78 5.49,-1.35 13.86,-1.35 8.37,0 13.77,1.35 5.49,1.35 8.55,3.78 3.15,2.43 4.32,5.85 1.26,3.33 1.26,7.47 l 0,30.69 z m -35.46,-3.24 q 0,1.8 1.35,3.06 1.35,1.17 6.21,1.17 4.86,0 6.21,-1.17 1.35,-1.26 1.35,-3.06 l 0,-24.21 q 0,-1.71 -1.35,-2.88 -1.35,-1.26 -6.21,-1.26 -4.86,0 -6.21,1.26 -1.35,1.17 -1.35,2.88 l 0,24.21 z"
                 inkscape:connector-curvature="0" />
              <path
                 id="path4187"
                 style="font-style:normal;font-variant:normal;font-weight:normal;font-stretch:normal;font-size:90px;font-family:Bungee;-inkscape-font-specification:Bungee"
                 d="m -1332.3513,100.61133 -45.81,0 q -1.71,0 -2.52,-0.720002 -0.72,-0.81 -0.72,-2.52 l 0,-58.32 q 0,-1.71 0.72,-2.43 0.81,-0.81 2.52,-0.81 l 13.95,0 q 1.71,0 2.43,0.81 0.81,0.72 0.81,2.43 l 0,44.55 12.33,0 0,-14.58 q 0,-1.71 0.72,-2.43 0.81,-0.81 2.52,-0.81 l 13.05,0 q 1.71,0 2.43,0.81 0.81,0.72 0.81,2.43 l 0,28.35 q 0,1.71 -0.81,2.52 -0.72,0.720002 -2.43,0.720002 z"
                 inkscape:connector-curvature="0" />
              <path
                 id="path4189"
                 style="font-style:normal;font-variant:normal;font-weight:normal;font-stretch:normal;font-size:90px;font-family:Bungee;-inkscape-font-specification:Bungee"
                 d="m -1317.0232,100.61133 q -1.71,0 -2.52,-0.720002 -0.72,-0.81 -0.72,-2.52 l 0,-10.71 q 0,-1.71 0.72,-2.43 0.81,-0.81 2.52,-0.81 l 8.91,0 0,-30.24 -8.91,0 q -1.71,0 -2.52,-0.72 -0.72,-0.81 -0.72,-2.52 l 0,-10.89 q 0,-1.71 0.72,-2.43 0.81,-0.81 2.52,-0.81 l 38.34,0 q 1.71,0 2.43,0.81 0.81,0.72 0.81,2.43 l 0,10.89 q 0,1.71 -0.81,2.52 -0.72,0.72 -2.43,0.72 l -8.73,0 0,30.24 8.73,0 q 1.71,0 2.43,0.81 0.81,0.72 0.81,2.43 l 0,10.71 q 0,1.71 -0.81,2.52 -0.72,0.720002 -2.43,0.720002 l -38.34,0 z"
                 inkscape:connector-curvature="0" />
              <path
                 id="path4191"
                 style="font-style:normal;font-variant:normal;font-weight:normal;font-stretch:normal;font-size:90px;font-family:Bungee;-inkscape-font-specification:Bungee"
                 d="m -1233.731,100.61133 -14.58,0 q -1.71,0 -2.52,-0.720002 -0.72,-0.81 -0.72,-2.52 l 0,-44.19 -13.23,0 q -1.71,0 -2.52,-0.72 -0.72,-0.81 -0.72,-2.52 l 0,-10.89 q 0,-1.71 0.72,-2.43 0.81,-0.81 2.52,-0.81 l 47.52,0 q 1.71,0 2.43,0.81 0.81,0.72 0.81,2.43 l 0,10.89 q 0,1.71 -0.81,2.52 -0.72,0.72 -2.43,0.72 l -13.23,0 0,44.19 q 0,1.71 -0.81,2.52 -0.72,0.720002 -2.43,0.720002 z"
                 inkscape:connector-curvature="0" />
              <path
                 id="path4193"
                 style="font-style:normal;font-variant:normal;font-weight:normal;font-stretch:normal;font-size:90px;font-family:Bungee;-inkscape-font-specification:Bungee"
                 d="m -1150.8959,83.601328 q 0,4.14 -1.26,7.56 -1.17,3.33 -4.32,5.76 -3.06,2.34 -8.55,3.690002 -5.4,1.35 -13.77,1.35 -8.37,0 -13.86,-1.35 -5.49,-1.350002 -8.64,-3.690002 -3.06,-2.43 -4.32,-5.76 -1.17,-3.42 -1.17,-7.56 l 0,-30.69 q 0,-4.14 1.17,-7.47 1.26,-3.42 4.32,-5.85 3.15,-2.43 8.64,-3.78 5.49,-1.35 13.86,-1.35 8.37,0 13.77,1.35 5.49,1.35 8.55,3.78 3.15,2.43 4.32,5.85 1.26,3.33 1.26,7.47 l 0,30.69 z m -35.46,-3.24 q 0,1.8 1.35,3.06 1.35,1.17 6.21,1.17 4.86,0 6.21,-1.17 1.35,-1.26 1.35,-3.06 l 0,-24.21 q 0,-1.71 -1.35,-2.88 -1.35,-1.26 -6.21,-1.26 -4.86,0 -6.21,1.26 -1.35,1.17 -1.35,2.88 l 0,24.21 z"
                 inkscape:connector-curvature="0" />
              <path
                 id="path4195"
                 style="font-style:normal;font-variant:normal;font-weight:normal;font-stretch:normal;font-size:90px;font-family:Bungee;-inkscape-font-specification:Bungee"
                 d="m -1123.1463,69.561328 -12.96,0 q -2.34,0 -3.06,-0.63 -0.63,-0.72 -0.72,-3.06 l -0.72,-26.37 q -0.09,-2.34 0.54,-2.97 0.72,-0.72 3.06,-0.72 l 14.85,0 q 2.25,0 2.88,0.72 0.72,0.63 0.63,2.97 l -0.72,26.37 q -0.09,2.34 -0.81,3.06 -0.63,0.63 -2.97,0.63 z"
                 inkscape:connector-curvature="0" />
              <path
                 id="path4197"
                 style="font-style:normal;font-variant:normal;font-weight:normal;font-stretch:normal;font-size:90px;font-family:Bungee;-inkscape-font-specification:Bungee"
                 d="m -1077.4741,100.61133 -28.44,0 q -1.71,0 -2.52,-0.720002 -0.72,-0.81 -0.72,-2.52 l 0,-10.53 q 0,-1.71 0.72,-2.43 0.81,-0.81 2.52,-0.81 l 24.21,0 q 1.17,0 1.71,-0.72 0.63,-0.81 0.63,-1.89 0,-1.53 -0.63,-2.25 -0.54,-0.72 -1.71,-0.81 l -13.5,-1.89 q -6.3,-0.9 -10.17,-4.14 -3.78,-3.24 -3.78,-10.8 l 0,-9.45 q 0,-7.65 4.95,-11.7 4.95,-4.14 13.68,-4.14 l 25.2,0 q 1.71,0 2.43,0.81 0.81,0.72 0.81,2.43 l 0,10.71 q 0,1.71 -0.81,2.52 -0.72,0.72 -2.43,0.72 l -20.97,0 q -1.17,0 -1.8,0.81 -0.63,0.72 -0.63,1.89 0,1.17 0.63,1.98 0.63,0.81 1.8,0.9 l 13.41,1.8 q 6.3,0.9 10.17,4.14 3.87,3.24 3.87,10.8 l 0,9.45 q 0,7.65 -5.04,11.79 -4.95,4.050002 -13.59,4.050002 z"
                 inkscape:connector-curvature="0" />
              <path
                 id="path4200"
                 style="font-style:normal;font-variant:normal;font-weight:normal;font-stretch:normal;font-size:90px;font-family:Bungee;-inkscape-font-specification:Bungee"
                 d="m -1011.5941,100.61133 -13.95,0 q -1.71,0 -2.52,-0.720002 -0.72,-0.81 -0.72,-2.52 l 0,-58.32 q 0,-1.71 0.72,-2.43 0.81,-0.81 2.52,-0.81 l 27.53996,0 q 12.24,0 16.74,4.86 4.5,4.86 4.5,12.69 l 0,11.52 q 0,7.83 -4.5,12.69 -4.5,4.86 -16.74,4.86 l -10.34996,0 0,14.94 q 0,1.71 -0.81,2.52 -0.72,0.720002 -2.43,0.720002 z m 3.06,-47.970002 0,13.59 8.1,0 q 2.60996,0 3.41996,-1.35 0.81,-1.35 0.81,-3.06 l 0,-4.77 q 0,-1.71 -0.81,-3.06 -0.81,-1.35 -3.41996,-1.35 l -8.1,0 z"
                 inkscape:connector-curvature="0" />
              <path
                 id="path4202"
                 style="font-style:normal;font-variant:normal;font-weight:normal;font-stretch:normal;font-size:90px;font-family:Bungee;-inkscape-font-specification:Bungee"
                 d="m -965.63648,100.61133 q -1.71,0 -2.52,-0.720002 -0.72,-0.81 -0.72,-2.52 l 0,-10.71 q 0,-1.71 0.72,-2.43 0.81,-0.81 2.52,-0.81 l 8.91,0 0,-30.24 -8.91,0 q -1.71,0 -2.52,-0.72 -0.72,-0.81 -0.72,-2.52 l 0,-10.89 q 0,-1.71 0.72,-2.43 0.81,-0.81 2.52,-0.81 l 38.34,0 q 1.71,0 2.43,0.81 0.81,0.72 0.81,2.43 l 0,10.89 q 0,1.71 -0.81,2.52 -0.72,0.72 -2.43,0.72 l -8.73,0 0,30.24 8.73,0 q 1.71,0 2.43,0.81 0.81,0.72 0.81,2.43 l 0,10.71 q 0,1.71 -0.81,2.52 -0.72,0.720002 -2.43,0.720002 l -38.34,0 z"
                 inkscape:connector-curvature="0" />
              <path
                 id="path4205"
                 style="font-style:normal;font-variant:normal;font-weight:normal;font-stretch:normal;font-size:90px;font-family:Bungee;-inkscape-font-specification:Bungee"
                 d="m -867.1343,100.61133 -44.64,0 q -1.71,0 -2.52,-0.720002 -0.72,-0.81 -0.72,-2.52 l 0,-12.06 q 0,-1.71 0.54,-2.97 0.54,-1.35 1.71,-2.61 l 21.87,-26.55 -19.26,0 q -1.71,0 -2.52,-0.72 -0.72,-0.81 -0.72,-2.52 l 0,-10.89 q 0,-1.71 0.72,-2.43 0.81,-0.81 2.52,-0.81 l 41.4,0 q 1.71,0 2.43,0.81 0.81,0.72 0.81,2.43 l 0,13.41 q 0,1.8 -0.54,3.15 -0.54,1.26 -1.71,2.52 l -20.88,25.29 21.51,0 q 1.71,0 2.43,0.81 0.81,0.72 0.81,2.43 l 0,10.71 q 0,1.71 -0.81,2.52 -0.72,0.720002 -2.43,0.720002 z"
                 inkscape:connector-curvature="0" />
              <path
                 id="path4207"
                 style="font-style:normal;font-variant:normal;font-weight:normal;font-stretch:normal;font-size:90px;font-family:Bungee;-inkscape-font-specification:Bungee"
                 d="m -808.24758,100.61133 -44.64,0 q -1.71,0 -2.52,-0.720002 -0.72,-0.81 -0.72,-2.52 l 0,-12.06 q 0,-1.71 0.54,-2.97 0.54,-1.35 1.71,-2.61 l 21.87,-26.55 -19.26,0 q -1.71,0 -2.52,-0.72 -0.72,-0.81 -0.72,-2.52 l 0,-10.89 q 0,-1.71 0.72,-2.43 0.81,-0.81 2.52,-0.81 l 41.4,0 q 1.71,0 2.43,0.81 0.81,0.72 0.81,2.43 l 0,13.41 q 0,1.8 -0.54,3.15 -0.54,1.26 -1.71,2.52 l -20.88,25.29 21.51,0 q 1.71,0 2.43,0.81 0.81,0.72 0.81,2.43 l 0,10.71 q 0,1.71 -0.81,2.52 -0.72,0.720002 -2.43,0.720002 z"
                 inkscape:connector-curvature="0" />
              <path
                 id="path4209"
                 style="font-style:normal;font-variant:normal;font-weight:normal;font-stretch:normal;font-size:90px;font-family:Bungee;-inkscape-font-specification:Bungee"
                 d="m -771.15352,54.711328 -4.23,13.68 14.13,0 -4.23,-13.68 q -0.36,-0.81 -0.81,-1.17 -0.36,-0.36 -0.9,-0.36 l -2.25,0 q -0.54,0 -0.99,0.36 -0.36,0.36 -0.72,1.17 z m -5.13,42.66 q 0,1.71 -0.81,2.52 -0.72,0.720002 -2.43,0.720002 l -13.23,0 q -1.71,0 -2.52,-0.720002 -0.72,-0.81 -0.72,-2.52 l 0,-23.76 q 0,-2.7 0.81,-6.21 0.9,-3.51 2.7,-8.19 l 7.83,-20.43 q 0.54,-1.53 1.62,-2.25 1.17,-0.72 2.97,-0.72 l 24.21,0 q 1.71,0 2.79,0.72 1.17,0.72 1.71,2.25 l 7.83,20.43 q 1.8,4.68 2.61,8.19 0.9,3.51 0.9,6.21 l 0,23.76 q 0,1.71 -0.81,2.52 -0.72,0.720002 -2.43,0.720002 l -13.59,0 q -1.8,0 -2.7,-0.720002 -0.81,-0.81 -0.81,-2.52 l 0,-12.6 -15.93,0 0,12.6 z"
                 inkscape:connector-curvature="0" />
            </g>
            <g
               id="flowRoot4243"
               style="font-style:normal;font-variant:normal;font-weight:normal;font-stretch:normal;font-size:40px;line-height:125%;font-family:Pacifico;-inkscape-font-specification:Pacifico;letter-spacing:0px;word-spacing:0px;fill:#000000;fill-opacity:1;stroke:none;stroke-width:1px;stroke-linecap:butt;stroke-linejoin:miter;stroke-opacity:1"
               transform="matrix(0.18384782,0,0,0.18384782,-1361.2013,532.62681)">
              <path
                 id="path4244"
                 style="font-style:normal;font-variant:normal;font-weight:normal;font-stretch:normal;font-size:50px;font-family:Bungee;-inkscape-font-specification:Bungee"
                 d="m -1329.4145,284.99089 -15.8,0 q -0.95,0 -1.4,-0.4 -0.4,-0.45 -0.4,-1.4 l 0,-5.85 q 0,-0.95 0.4,-1.35 0.45,-0.45 1.4,-0.45 l 13.45,0 q 0.65,0 0.95,-0.4 0.35,-0.45 0.35,-1.05 0,-0.85 -0.35,-1.25 -0.3,-0.4 -0.95,-0.45 l -7.5,-1.05 q -3.5,-0.5 -5.65,-2.3 -2.1,-1.8 -2.1,-6 l 0,-5.25 q 0,-4.25 2.75,-6.5 2.75,-2.3 7.6,-2.3 l 14,0 q 0.95,0 1.35,0.45 0.45,0.4 0.45,1.35 l 0,5.95 q 0,0.95 -0.45,1.4 -0.4,0.4 -1.35,0.4 l -11.65,0 q -0.65,0 -1,0.45 -0.35,0.4 -0.35,1.05 0,0.65 0.35,1.1 0.35,0.45 1,0.5 l 7.45,1 q 3.5,0.5 5.65,2.3 2.15,1.8 2.15,6 l 0,5.25 q 0,4.25 -2.8,6.55 -2.75,2.25 -7.55,2.25 z"
                 inkscape:connector-curvature="0" />
              <path
                 id="path4246"
                 style="font-style:normal;font-variant:normal;font-weight:normal;font-stretch:normal;font-size:50px;font-family:Bungee;-inkscape-font-specification:Bungee"
                 d="m -1301.3645,284.99089 q -0.95,0 -1.4,-0.4 -0.4,-0.45 -0.4,-1.4 l 0,-5.95 q 0,-0.95 0.4,-1.35 0.45,-0.45 1.4,-0.45 l 4.95,0 0,-16.8 -4.95,0 q -0.95,0 -1.4,-0.4 -0.4,-0.45 -0.4,-1.4 l 0,-6.05 q 0,-0.95 0.4,-1.35 0.45,-0.45 1.4,-0.45 l 21.3,0 q 0.95,0 1.35,0.45 0.45,0.4 0.45,1.35 l 0,6.05 q 0,0.95 -0.45,1.4 -0.4,0.4 -1.35,0.4 l -4.85,0 0,16.8 4.85,0 q 0.95,0 1.35,0.45 0.45,0.4 0.45,1.35 l 0,5.95 q 0,0.95 -0.45,1.4 -0.4,0.4 -1.35,0.4 l -21.3,0 z"
                 inkscape:connector-curvature="0" />
              <path
                 id="path4248"
                 style="font-style:normal;font-variant:normal;font-weight:normal;font-stretch:normal;font-size:50px;font-family:Bungee;-inkscape-font-specification:Bungee"
                 d="m -1251.5605,284.99089 -7.5,0 q -0.95,0 -1.4,-0.4 -0.4,-0.45 -0.4,-1.4 l 0,-32.4 q 0,-0.95 0.4,-1.35 0.45,-0.45 1.4,-0.45 l 5.2,0 q 0.95,0 1.6,0.3 0.7,0.3 1.35,1.05 l 9.7,11.1 0,-10.65 q 0,-0.95 0.4,-1.35 0.45,-0.45 1.4,-0.45 l 7.5,0 q 0.95,0 1.35,0.45 0.45,0.4 0.45,1.35 l 0,32.4 q 0,0.95 -0.45,1.4 -0.4,0.4 -1.35,0.4 l -7.5,0 q -0.95,0 -1.4,-0.4 -0.4,-0.45 -0.4,-1.4 l 0,-6.15 -8.55,-10.35 0,16.5 q 0,0.95 -0.45,1.4 -0.4,0.4 -1.35,0.4 z"
                 inkscape:connector-curvature="0" />
              <path
                 id="path4250"
                 style="font-style:normal;font-variant:normal;font-weight:normal;font-stretch:normal;font-size:50px;font-family:Bungee;-inkscape-font-specification:Bungee"
                 d="m -1187.9848,284.99089 -12.2,0 q -6.25,0 -9.3,-2.5 -3,-2.5 -3,-7.7 l 0,-15.55 q 0,-5.2 3,-7.7 3.05,-2.55 9.3,-2.55 l 12.2,0 q 0.95,0 1.35,0.45 0.45,0.4 0.45,1.35 l 0,6.05 q 0,0.95 -0.45,1.4 -0.4,0.4 -1.35,0.4 l -10.05,0 q -1.55,0 -2.3,0.65 -0.75,0.6 -0.75,1.85 l 0,11.9 q 0,1.25 0.75,1.85 0.75,0.55 2.3,0.55 l 10.05,0 q 0.95,0 1.35,0.45 0.45,0.4 0.45,1.35 l 0,5.95 q 0,0.95 -0.45,1.4 -0.4,0.4 -1.35,0.4 z"
                 inkscape:connector-curvature="0" />
              <path
                 id="path4252"
                 style="font-style:normal;font-variant:normal;font-weight:normal;font-stretch:normal;font-size:50px;font-family:Bungee;-inkscape-font-specification:Bungee"
                 d="m -1144.259,284.99089 -23.2,0 q -0.95,0 -1.4,-0.4 -0.4,-0.45 -0.4,-1.4 l 0,-32.4 q 0,-0.95 0.4,-1.35 0.45,-0.45 1.4,-0.45 l 23.2,0 q 0.95,0 1.35,0.45 0.45,0.4 0.45,1.35 l 0,5.85 q 0,0.95 -0.45,1.4 -0.4,0.4 -1.35,0.4 l -13.8,0 0,3.85 9.75,0 q 0.95,0 1.35,0.45 0.45,0.4 0.45,1.35 l 0,5.35 q 0,0.95 -0.45,1.4 -0.4,0.4 -1.35,0.4 l -9.75,0 0,4.3 13.8,0 q 0.95,0 1.35,0.45 0.45,0.4 0.45,1.35 l 0,5.85 q 0,0.95 -0.45,1.4 -0.4,0.4 -1.35,0.4 z"
                 inkscape:connector-curvature="0" />
            </g>
            <g
               id="flowRoot4251"
               style="font-style:normal;font-variant:normal;font-weight:normal;font-stretch:normal;font-size:40px;line-height:125%;font-family:Pacifico;-inkscape-font-specification:Pacifico;letter-spacing:0px;word-spacing:0px;fill:#000000;fill-opacity:1;stroke:none;stroke-width:1px;stroke-linecap:butt;stroke-linejoin:miter;stroke-opacity:1"
               transform="matrix(0.18384782,0,0,0.18384782,-1261.6584,532.62681)">
              <path
                 id="path4235"
                 style="font-style:normal;font-variant:normal;font-weight:normal;font-stretch:normal;font-size:50px;font-family:Bungee;-inkscape-font-specification:Bungee"
                 d="m -1321.9645,284.99089 -23.8,0 q -0.95,0 -1.4,-0.4 -0.4,-0.45 -0.4,-1.4 l 0,-8.6 q 0,-2.9 0.55,-4.75 0.6,-1.9 1.65,-3.1 1.05,-1.2 2.5,-1.9 1.45,-0.7 3.15,-1.2 l 6.7,-2.1 q 0.8,-0.2 1.05,-0.6 0.3,-0.4 0.3,-1.2 0,-0.75 -0.3,-1 -0.3,-0.3 -1.05,-0.3 l -10.85,0 q -0.95,0 -1.4,-0.4 -0.4,-0.45 -0.4,-1.4 l 0,-5.85 q 0,-0.95 0.4,-1.35 0.45,-0.45 1.4,-0.45 l 14.75,0 q 4.25,0 6.5,2.15 2.3,2.1 2.3,6.15 l 0,4.7 q 0,3.75 -2.1,5.75 -2.1,2 -5.7,3.1 l -6.8,2.15 q -0.75,0.2 -1.05,0.45 -0.25,0.25 -0.25,1.05 l 0,1.05 14.25,0 q 0.95,0 1.35,0.45 0.45,0.4 0.45,1.35 l 0,5.85 q 0,0.95 -0.45,1.4 -0.4,0.4 -1.35,0.4 z"
                 inkscape:connector-curvature="0" />
              <path
                 id="path4237"
                 style="font-style:normal;font-variant:normal;font-weight:normal;font-stretch:normal;font-size:50px;font-family:Bungee;-inkscape-font-specification:Bungee"
                 d="m -1272.9504,275.54089 q 0,2.3 -0.65,4.2 -0.65,1.85 -2.35,3.2 -1.7,1.3 -4.7,2.05 -2.95,0.75 -7.55,0.75 -4.6,0 -7.6,-0.75 -2.95,-0.75 -4.65,-2.05 -1.7,-1.35 -2.4,-3.2 -0.65,-1.9 -0.65,-4.2 l 0,-17.05 q 0,-2.3 0.65,-4.15 0.7,-1.9 2.4,-3.25 1.7,-1.35 4.65,-2.1 3,-0.75 7.6,-0.75 4.6,0 7.55,0.75 3,0.75 4.7,2.1 1.7,1.35 2.35,3.25 0.65,1.85 0.65,4.15 l 0,17.05 z m -19.25,-1.8 q 0,1 0.7,1.7 0.75,0.65 3.3,0.65 2.55,0 3.25,-0.65 0.75,-0.7 0.75,-1.7 l 0,-13.45 q 0,-0.95 -0.75,-1.6 -0.7,-0.7 -3.25,-0.7 -2.55,0 -3.3,0.7 -0.7,0.65 -0.7,1.6 l 0,13.45 z"
                 inkscape:connector-curvature="0" />
              <path
                 id="path4239"
                 style="font-style:normal;font-variant:normal;font-weight:normal;font-stretch:normal;font-size:50px;font-family:Bungee;-inkscape-font-specification:Bungee"
                 d="m -1232.5418,284.99089 -22.1,0 q -0.95,0 -1.4,-0.4 -0.4,-0.45 -0.4,-1.4 l 0,-6.05 q 0,-0.95 0.4,-1.35 0.45,-0.45 1.4,-0.45 l 5.6,0 0,-16.7 -4.6,0 q -0.95,0 -1.4,-0.4 -0.4,-0.45 -0.4,-1.4 l 0,-6.05 q 0,-0.95 0.4,-1.35 0.45,-0.45 1.4,-0.45 l 14.5,0 q 0.95,0 1.35,0.45 0.45,0.4 0.45,1.35 l 0,24.55 4.8,0 q 0.95,0 1.35,0.45 0.45,0.4 0.45,1.35 l 0,6.05 q 0,0.95 -0.45,1.4 -0.4,0.4 -1.35,0.4 z"
                 inkscape:connector-curvature="0" />
              <path
                 id="path4241"
                 style="font-style:normal;font-variant:normal;font-weight:normal;font-stretch:normal;font-size:50px;font-family:Bungee;-inkscape-font-specification:Bungee"
                 d="m -1199.6332,285.74089 q -4.6,0 -7.55,-0.75 -2.9,-0.7 -4.55,-2 -1.65,-1.35 -2.3,-3.2 -0.6,-1.85 -0.6,-4.15 l 0,-16.4 q 0,-4.55 2.6,-7.4 2.65,-2.85 9.7,-2.85 l 11.5,0 q 0.95,0 1.35,0.45 0.45,0.4 0.45,1.35 l 0,5.9 q 0,0.95 -0.45,1.4 -0.4,0.4 -1.35,0.4 l -9.35,0 q -1.85,0 -2.5,0.6 -0.65,0.55 -0.65,2.4 l 0,1.1 q 1.2,-0.35 2.75,-0.55 1.6,-0.2 3.6,-0.2 6.75,0 9.25,2.3 2.5,2.25 2.5,6.7 l 0,4.8 q 0,2.3 -0.65,4.15 -0.6,1.85 -2.25,3.2 -1.6,1.3 -4.4,2 -2.8,0.75 -7.1,0.75 z m -3.7,-13.85 0,2.95 q 0,0.8 0.6,1.35 0.6,0.5 2.75,0.5 2.25,0 2.85,-0.5 0.6,-0.55 0.6,-1.35 l 0,-2.95 q 0,-0.75 -0.6,-1.25 -0.6,-0.55 -2.85,-0.55 -2.15,0 -2.75,0.55 -0.6,0.5 -0.6,1.25 z"
                 inkscape:connector-curvature="0" />
            </g>
          </g>
          <text
             xml:space="preserve"
             style="font-style:normal;font-weight:normal;font-size:40px;line-height:125%;font-family:sans-serif;letter-spacing:0px;word-spacing:0px;fill:#000000;fill-opacity:1;stroke:none;stroke-width:1px;stroke-linecap:butt;stroke-linejoin:miter;stroke-opacity:1"
             x="-1446.1055"
             y="609.7287"
             id="text4230"
             sodipodi:linespacing="125%"><tspan
               sodipodi:role="line"
               id="tspan4232"
               x="-1446.1055"
               y="609.7287" /></text>
        </g>
      </g>
    </g>
  </g>
</svg>
