<?xml version="1.0" encoding="UTF-8" standalone="no"?>
<!-- Created with Inkscape (http://www.inkscape.org/) -->

<svg
   xmlns:dc="http://purl.org/dc/elements/1.1/"
   xmlns:cc="http://creativecommons.org/ns#"
   xmlns:rdf="http://www.w3.org/1999/02/22-rdf-syntax-ns#"
   xmlns:svg="http://www.w3.org/2000/svg"
   xmlns="http://www.w3.org/2000/svg"
   xmlns:sodipodi="http://sodipodi.sourceforge.net/DTD/sodipodi-0.dtd"
   xmlns:inkscape="http://www.inkscape.org/namespaces/inkscape"
   width="98.576187mm"
   height="79.871033mm"
   viewBox="0 0 349.2857 283.00759"
   id="svg2"
   version="1.1"
   inkscape:version="0.91 r13725"
   sodipodi:docname="pp_logo.svg">
  <defs
     id="defs4">
    <inkscape:path-effect
       vertical="false"
       scale_y_rel="false"
       prop_scale="1"
       bendpath="m -591.55728,-175.71202 155.03665,0"
       is_visible="true"
       id="path-effect4197"
       effect="bend_path" />
  </defs>
  <sodipodi:namedview
     id="base"
     pagecolor="#ffffff"
     bordercolor="#666666"
     borderopacity="1.0"
     inkscape:pageopacity="0.0"
     inkscape:pageshadow="2"
     inkscape:zoom="3.959798"
     inkscape:cx="172.2945"
     inkscape:cy="153.08127"
     inkscape:document-units="px"
     inkscape:current-layer="layer1-3"
     showgrid="false"
     showborder="false"
     fit-margin-top="0"
     fit-margin-left="0"
     fit-margin-right="0"
     fit-margin-bottom="0"
     inkscape:window-width="1920"
     inkscape:window-height="1054"
     inkscape:window-x="0"
     inkscape:window-y="0"
     inkscape:window-maximized="1" />
  <metadata
     id="metadata7">
    <rdf:RDF>
      <cc:Work
         rdf:about="">
        <dc:format>image/svg+xml</dc:format>
        <dc:type
           rdf:resource="http://purl.org/dc/dcmitype/StillImage" />
        <dc:title />
      </cc:Work>
    </rdf:RDF>
  </metadata>
  <g
     inkscape:label="Layer 1"
     inkscape:groupmode="layer"
     id="layer1"
     transform="translate(-511.07142,420.57017)">
    <g
       transform="translate(2229.9181,-808.91056)"
       id="layer1-3"
       inkscape:label="Layer 1">
      <text
         inkscape:export-ydpi="90"
         inkscape:export-xdpi="90"
         inkscape:export-filename="/media/dries/VDAB-DRIESH/V.HTML/TestWebsite/Img/Plogo_klein_header2.png"
         sodipodi:linespacing="125%"
         id="text4147"
         y="465.25851"
         x="-1374.4512"
         style="font-style:normal;font-variant:normal;font-weight:normal;font-stretch:normal;font-size:7.35391235px;line-height:125%;font-family:Pacifico;-inkscape-font-specification:Pacifico;letter-spacing:0px;word-spacing:0px;fill:#000000;fill-opacity:1;stroke:none;stroke-width:1px;stroke-linecap:butt;stroke-linejoin:miter;stroke-opacity:1"
         xml:space="preserve"><tspan
           y="465.25851"
           x="-1374.4512"
           id="tspan4149"
           sodipodi:role="line" /></text>
      <text
         inkscape:export-ydpi="90"
         inkscape:export-xdpi="90"
         inkscape:export-filename="/media/dries/VDAB-DRIESH/V.HTML/TestWebsite/Img/Plogo_klein_header2.png"
         sodipodi:linespacing="125%"
         id="text4151"
         y="630.17279"
         x="-1374.8225"
         style="font-style:normal;font-variant:normal;font-weight:normal;font-stretch:normal;font-size:7.35391235px;line-height:125%;font-family:Pacifico;-inkscape-font-specification:Pacifico;letter-spacing:0px;word-spacing:0px;fill:#000000;fill-opacity:1;stroke:none;stroke-width:1px;stroke-linecap:butt;stroke-linejoin:miter;stroke-opacity:1"
         xml:space="preserve"><tspan
           y="630.17279"
           x="-1374.8225"
           id="tspan4153"
           sodipodi:role="line" /></text>
      <path
         transform="matrix(0.97164654,0,0,0.97373119,-1529.2541,658.60014)"
         d="m 84.152734,-73.934418 -100.768764,56.590269 -99.39299,-58.973176 1.37577,-115.563445 100.768764,-56.59027 99.392992,58.97318 z"
         inkscape:randomized="3.59088e-16"
         inkscape:rounded="1.42594e-15"
         inkscape:flatsided="true"
         sodipodi:arg2="1.0591019"
         sodipodi:arg1="0.53550312"
         sodipodi:r2="100.08796"
         sodipodi:r1="115.57163"
         sodipodi:cy="-132.90759"
         sodipodi:cx="-15.240258"
         sodipodi:sides="6"
         id="path4328"
         style="opacity:0.9;fill:#dcddcd;fill-opacity:1;stroke:none;stroke-width:18;stroke-linecap:round;stroke-linejoin:round;stroke-miterlimit:4;stroke-dasharray:none;stroke-dashoffset:0;stroke-opacity:1"
         sodipodi:type="star" />
      <path
         inkscape:export-ydpi="90"
         inkscape:export-xdpi="90"
         inkscape:export-filename="/media/dries/VDAB-DRIESH/V.HTML/TestWebsite/Img/Plogo_klein_header2.png"
         sodipodi:type="star"
         style="opacity:1;fill:#000000;fill-opacity:0;stroke:#000000;stroke-width:4.27112675;stroke-linecap:round;stroke-linejoin:round;stroke-miterlimit:4;stroke-dasharray:none;stroke-dashoffset:0;stroke-opacity:1"
         id="path4231"
         sodipodi:sides="6"
         sodipodi:cx="-1787.97"
         sodipodi:cy="73.524391"
         sodipodi:r1="145.10152"
         sodipodi:r2="168.72269"
         sodipodi:arg1="-0.01796214"
         sodipodi:arg2="0.50563664"
         inkscape:flatsided="true"
         inkscape:rounded="1.4259427e-15"
         inkscape:randomized="3.59088e-16"
         d="m -1642.8919,70.918198 -70.282,126.944422 -145.0781,2.6062 -74.7961,-124.338235 70.282,-126.944426 145.0782,-2.606193 z"
         transform="matrix(0.66421123,0.39891796,-0.39891796,0.66421123,-327.28405,1194.2618)" />
      <path
         transform="matrix(-0.39222365,-0.91986989,0.91816979,-0.39618713,0,0)"
         style="opacity:0.98799995;fill:#d4aa00;fill-opacity:1;fill-rule:evenodd;stroke:none;stroke-width:0.60000002;stroke-linejoin:miter;stroke-miterlimit:4;stroke-dasharray:none;stroke-opacity:1"
         d="m 191.30515,-1656.6215 c 0,17.6885 -5.23004,35.4947 -12.01082,51.3704 -4.34828,10.1805 -16.86651,28.8587 -16.86651,28.8587 0,0 -3.74445,-2.2022 -7.25675,-1.1686 -2.19664,0.6465 -3.51921,4.2328 -6.19723,5.2441 -2.01204,0.7598 -5.18352,-1.1981 -7.12784,-0.2473 -2.34602,1.1472 -3.41625,5.2454 -5.19581,6.6501 l -4.67837,1.7725 -73.150144,-91.7299 z"
         id="path4450"
         inkscape:connector-curvature="0"
         sodipodi:nodetypes="cscssscccc" />
      <circle
         r="9.5535717"
         cy="496.00211"
         cx="-1516.1511"
         id="circle4437"
         style="opacity:0.98799995;fill:#860e00;fill-opacity:1;fill-rule:evenodd;stroke:none;stroke-width:0.60000002;stroke-linejoin:miter;stroke-miterlimit:4;stroke-dasharray:none;stroke-opacity:1" />
      <path
         inkscape:connector-curvature="0"
         id="circle4161"
         d="m -1516.1511,484.3414 c -6.4207,0 -11.6607,5.24001 -11.6607,11.66069 0,6.42069 5.24,11.6607 11.6607,11.6607 6.4207,0 11.6607,-5.24001 11.6607,-11.6607 0,-6.42068 -5.24,-11.66069 -11.6607,-11.66069 z m 0,3.26438 c 4.6565,0 8.3963,3.73974 8.3963,8.39631 0,4.65658 -3.7398,8.39668 -8.3963,8.39668 -4.6566,0 -8.3967,-3.7401 -8.3967,-8.39668 0,-4.65657 3.7401,-8.39631 8.3967,-8.39631 z"
         style="color:#000000;font-style:normal;font-variant:normal;font-weight:normal;font-stretch:normal;font-size:medium;line-height:normal;font-family:sans-serif;text-indent:0;text-align:start;text-decoration:none;text-decoration-line:none;text-decoration-style:solid;text-decoration-color:#000000;letter-spacing:normal;word-spacing:normal;text-transform:none;direction:ltr;block-progression:tb;writing-mode:lr-tb;baseline-shift:baseline;text-anchor:start;white-space:normal;clip-rule:nonzero;display:inline;overflow:visible;visibility:visible;opacity:1;isolation:auto;mix-blend-mode:normal;color-interpolation:sRGB;color-interpolation-filters:linearRGB;solid-color:#000000;solid-opacity:1;fill:#000000;fill-opacity:1;fill-rule:nonzero;stroke:none;stroke-width:17.75499916;stroke-linecap:butt;stroke-linejoin:miter;stroke-miterlimit:4;stroke-dasharray:none;stroke-dashoffset:0;stroke-opacity:1;color-rendering:auto;image-rendering:auto;shape-rendering:auto;text-rendering:auto;enable-background:accumulate" />
      <circle
         r="7.3214288"
         cy="569.08069"
         cx="-1538.5222"
         id="circle4439"
         style="opacity:0.98799995;fill:#860e00;fill-opacity:1;fill-rule:evenodd;stroke:none;stroke-width:0.60000002;stroke-linejoin:miter;stroke-miterlimit:4;stroke-dasharray:none;stroke-opacity:1" />
      <path
         style="color:#000000;font-style:normal;font-variant:normal;font-weight:normal;font-stretch:normal;font-size:medium;line-height:normal;font-family:sans-serif;text-indent:0;text-align:start;text-decoration:none;text-decoration-line:none;text-decoration-style:solid;text-decoration-color:#000000;letter-spacing:normal;word-spacing:normal;text-transform:none;direction:ltr;block-progression:tb;writing-mode:lr-tb;baseline-shift:baseline;text-anchor:start;white-space:normal;clip-rule:nonzero;display:inline;overflow:visible;visibility:visible;opacity:1;isolation:auto;mix-blend-mode:normal;color-interpolation:sRGB;color-interpolation-filters:linearRGB;solid-color:#000000;solid-opacity:1;fill:#000000;fill-opacity:1;fill-rule:nonzero;stroke:none;stroke-width:17.75499916;stroke-linecap:butt;stroke-linejoin:miter;stroke-miterlimit:4;stroke-dasharray:none;stroke-dashoffset:0;stroke-opacity:1;color-rendering:auto;image-rendering:auto;shape-rendering:auto;text-rendering:auto;enable-background:accumulate"
         d="m -1538.5222,559.74143 c -5.1425,0 -9.3393,4.19681 -9.3393,9.33926 0,5.14244 4.1968,9.33926 9.3393,9.33926 5.1424,0 9.3392,-4.19682 9.3392,-9.33926 0,-5.14245 -4.1968,-9.33926 -9.3392,-9.33926 z m 0,2.61449 c 3.7295,0 6.7247,2.99523 6.7247,6.72477 0,3.72953 -2.9952,6.72505 -6.7247,6.72505 -3.7296,0 -6.7251,-2.99552 -6.7251,-6.72505 0,-3.72954 2.9955,-6.72477 6.7251,-6.72477 z"
         id="path4199"
         inkscape:connector-curvature="0" />
      <path
         sodipodi:nodetypes="cccccsscscccc"
         inkscape:connector-curvature="0"
         id="path4387"
         d="m -1535.2481,514.79567 c -5.6044,-1.53205 -10.4107,-5.89494 -12.1174,-11.50655 -0.4182,-1.50369 -1.956,-4.73509 0.8411,-4.45959 2.5386,0.33587 4.6739,0.45939 7.5739,1.28157 3.0941,1.16115 5.5614,1.99042 7.6157,4.97805 0.1723,0.24807 0.3831,0.57336 0.5974,0.96936 0.2142,0.39599 0.6482,1.29155 0.8373,1.82138 0.184,0.51529 0.7312,3.93564 0.1834,4.66079 -2.1846,-3.89282 -0.937,-1.52307 -3.3629,-4.07277 -1.0931,-1.14894 -3.2398,-2.10144 -4.2675,-2.41462 0.9911,1.16902 1.4312,1.59124 1.7859,1.90002 2.2246,1.86034 2.8051,3.73044 3.4794,6.59968 0.2621,1.34066 -2.1335,0.40892 -3.1663,0.24268 z"
         style="fill:#008000;fill-opacity:0.76470588;stroke:#000000;stroke-width:2.32880926;stroke-miterlimit:4;stroke-dasharray:none" />
      <path
         id="path4448"
         d="m -1548.3357,549.04543 -5.3701,-2.36816 -1.0949,2.5177 -1.0869,-0.40747 -2.8728,5.92687 1.3423,0.5026 -1.2376,2.84661 5.3681,2.36824 1.4519,-3.33942 5.1363,2.12659 1.9554,-4.72079 -5.0524,-2.09279 1.4607,-3.35998 z"
         style="opacity:0.98799995;fill:#e3dbdb;fill-opacity:1;fill-rule:evenodd;stroke:none;stroke-width:0.60000002;stroke-linejoin:miter;stroke-miterlimit:4;stroke-dasharray:none;stroke-opacity:1"
         inkscape:connector-curvature="0" />
      <path
         style="color:#000000;font-style:normal;font-variant:normal;font-weight:normal;font-stretch:normal;font-size:medium;line-height:normal;font-family:sans-serif;text-indent:0;text-align:start;text-decoration:none;text-decoration-line:none;text-decoration-style:solid;text-decoration-color:#000000;letter-spacing:normal;word-spacing:normal;text-transform:none;direction:ltr;block-progression:tb;writing-mode:lr-tb;baseline-shift:baseline;text-anchor:start;white-space:normal;clip-rule:nonzero;display:inline;overflow:visible;visibility:visible;opacity:1;isolation:auto;mix-blend-mode:normal;color-interpolation:sRGB;color-interpolation-filters:linearRGB;solid-color:#000000;solid-opacity:1;fill:#000000;fill-opacity:1;fill-rule:nonzero;stroke:none;stroke-width:3.30582881;stroke-linecap:butt;stroke-linejoin:miter;stroke-miterlimit:4;stroke-dasharray:none;stroke-dashoffset:0;stroke-opacity:1;color-rendering:auto;image-rendering:auto;shape-rendering:auto;text-rendering:auto;enable-background:accumulate"
         d="m -1558.2397,559.35213 c -1.6135,-2.00021 -2.2451,-4.7661 -1.5467,-7.25328 0.2173,-1.24677 0.7576,-2.40967 1.5552,-3.38875 1.1602,-1.58557 2.8171,-2.86407 4.7731,-3.25843 1.6475,-0.37522 3.4452,-0.44752 5.0467,0.15411 0.9783,0.40739 1.6506,1.50072 1.3648,2.55909 -0.1888,0.94304 -0.7857,1.72583 -1.141,2.60457 1.4204,0.68208 2.9202,1.24647 4.2214,2.14417 0.881,0.77532 0.9857,2.12253 0.5207,3.14996 -0.5451,1.35443 -0.8883,2.9794 -2.1949,3.82953 -1.3687,0.84586 -3.0316,0.21015 -4.3461,-0.42613 -0.5885,-0.14991 -1.6965,-1.22787 -2.0116,-0.28328 -0.4168,1.0594 -0.8989,2.38877 -2.1574,2.65347 -1.4435,0.28153 -2.6657,-0.83206 -3.5512,-1.82738 -0.1846,-0.21344 -0.3606,-0.43424 -0.533,-0.65765 z m 3.4157,-0.0804 c 1.0484,0.29387 0.8745,-1.46655 1.1623,-2.12274 0.092,-0.8259 0.555,-1.99765 1.5861,-1.78287 1.2076,0.49187 2.356,1.13453 3.5433,1.67992 0.6283,0.13319 1.4377,1.03405 1.9831,0.44996 0.3847,-0.71151 0.6934,-1.48247 0.8824,-2.26794 -0.095,-0.97222 -1.4184,-1.02263 -2.0822,-1.51127 -1.092,-0.52487 -2.2046,-1.02682 -3.3038,-1.51684 -0.8031,-0.62164 0.2361,-1.46812 0.6012,-2.0229 0.4054,-0.6882 1.6483,-1.44181 1.1563,-2.30091 -1.0613,-0.36382 -2.2461,-0.29508 -3.337,-0.0771 -2.5272,0.49444 -4.5987,2.68798 -4.9201,5.24729 -0.3106,1.90845 0.3794,3.88661 1.7029,5.27755 0.3099,0.34825 0.6508,0.67002 1.0255,0.94788 z"
         id="path4204"
         inkscape:connector-curvature="0" />
      <path
         style="opacity:0.98799995;fill:#c97036;fill-opacity:0.90196079;fill-rule:evenodd;stroke:none;stroke-width:0.60000002;stroke-linejoin:miter;stroke-miterlimit:4;stroke-dasharray:none;stroke-opacity:1"
         d="m -1600.6324,469.02657 c 0,0 30.313,-8.5544 45.8929,-8.92858 27.6798,-0.66478 43.9285,2.85715 43.9285,2.85715 0,0 -0.12,2.43617 0.2167,3.97477 0.2905,1.32752 2.7316,3.89177 2.7316,3.89177 0,0 -1.7567,1.31891 -2.1427,1.96545 -0.4365,0.73108 -1.3633,2.67436 -1.3633,2.67436 0,0 -15.9139,-4.83774 -44.1748,-4.02421 -14.1893,0.40845 -40.8036,7.41071 -40.8036,7.41071 z"
         id="rect4453"
         inkscape:connector-curvature="0"
         sodipodi:nodetypes="cscscscscc" />
      <path
         style="opacity:0.98799995;fill:#e3dbdb;fill-opacity:1;fill-rule:evenodd;stroke:none;stroke-width:0.60000002;stroke-linejoin:miter;stroke-miterlimit:4;stroke-dasharray:none;stroke-opacity:1"
         d="M 166.16016 88.035156 L 158.46875 90.576172 L 159.67578 94.167969 L 158.18555 94.755859 L 160.72461 103.48438 L 162.56445 102.75781 L 163.92969 106.81836 L 171.61914 104.2793 L 170.01758 99.515625 L 177.24609 96.943359 L 174.88281 90.298828 L 167.77148 92.828125 L 166.16016 88.035156 z "
         transform="translate(-1718.8467,388.34039)"
         id="rect4441" />
      <path
         inkscape:connector-curvature="0"
         id="path256"
         d="m -1552.277,496.26516 c -3.339,-0.35733 -6.4782,-2.32936 -8.131,-5.27275 -0.9511,-1.35282 -1.5264,-2.92648 -1.6941,-4.56807 -0.393,-2.5371 -0.043,-5.24935 1.3995,-7.42097 1.1755,-1.86892 2.7698,-3.59683 4.8054,-4.52063 1.2804,-0.52752 2.9118,-0.1385 3.6256,1.10352 0.6969,1.04578 0.8687,2.32054 1.3523,3.4608 1.9427,-0.68224 3.8499,-1.54649 5.8817,-1.91937 1.5303,-0.0976 2.8719,1.05043 3.3916,2.42939 0.7478,1.75509 1.9321,3.57364 1.5103,5.56645 -0.4831,2.04618 -2.607,2.99533 -4.4095,3.62199 -0.6822,0.40518 -2.7019,0.43294 -2.1203,1.59688 0.5938,1.36394 1.3766,3.03775 0.4583,4.44513 -1.0736,1.59389 -3.2318,1.69427 -4.9696,1.59275 -0.3679,-0.0266 -0.7345,-0.068 -1.1002,-0.11512 z m 3.0818,-3.23031 c 1.2402,-0.69719 -0.5471,-2.16304 -0.8874,-3.0353 -0.6782,-0.84803 -1.333,-2.35856 -0.1818,-3.11287 1.5702,-0.66125 3.2252,-1.12861 4.8261,-1.72168 0.7036,-0.45748 2.2839,-0.373 2.2481,-1.4166 -0.302,-1.01283 -0.7291,-2.01044 -1.2802,-2.91086 -0.9863,-0.81032 -2.2554,0.36568 -3.3203,0.52757 -1.4939,0.52396 -2.9858,1.08824 -4.4542,1.65113 -1.3163,0.16759 -1.1383,-1.57473 -1.3135,-2.42468 -0.2614,-1.0104 0.1907,-2.85511 -1.0576,-3.19437 -1.3168,0.64447 -2.348,1.8027 -3.1546,3.01205 -1.8783,2.79196 -1.7655,6.73272 0.3023,9.39446 1.4764,2.05029 3.9416,3.24059 6.4498,3.30285 0.608,0.0355 1.2204,0.0178 1.8233,-0.0717 z"
         style="color:#000000;font-style:normal;font-variant:normal;font-weight:normal;font-stretch:normal;font-size:medium;line-height:normal;font-family:sans-serif;text-indent:0;text-align:start;text-decoration:none;text-decoration-line:none;text-decoration-style:solid;text-decoration-color:#000000;letter-spacing:normal;word-spacing:normal;text-transform:none;direction:ltr;block-progression:tb;writing-mode:lr-tb;baseline-shift:baseline;text-anchor:start;white-space:normal;clip-rule:nonzero;display:inline;overflow:visible;visibility:visible;opacity:1;isolation:auto;mix-blend-mode:normal;color-interpolation:sRGB;color-interpolation-filters:linearRGB;solid-color:#000000;solid-opacity:1;fill:#000000;fill-opacity:1;fill-rule:nonzero;stroke:none;stroke-width:3.30582881;stroke-linecap:butt;stroke-linejoin:miter;stroke-miterlimit:4;stroke-dasharray:none;stroke-dashoffset:0;stroke-opacity:1;color-rendering:auto;image-rendering:auto;shape-rendering:auto;text-rendering:auto;enable-background:accumulate" />
      <circle
         style="opacity:0.98799995;fill:#860e00;fill-opacity:1;fill-rule:evenodd;stroke:none;stroke-width:0.60000002;stroke-linejoin:miter;stroke-miterlimit:4;stroke-dasharray:none;stroke-opacity:1"
         id="path4435"
         cx="-1572.6083"
         cy="496.74496"
         r="8.125" />
      <path
         style="color:#000000;font-style:normal;font-variant:normal;font-weight:normal;font-stretch:normal;font-size:medium;line-height:normal;font-family:sans-serif;text-indent:0;text-align:start;text-decoration:none;text-decoration-line:none;text-decoration-style:solid;text-decoration-color:#000000;letter-spacing:normal;word-spacing:normal;text-transform:none;direction:ltr;block-progression:tb;writing-mode:lr-tb;baseline-shift:baseline;text-anchor:start;white-space:normal;clip-rule:nonzero;display:inline;overflow:visible;visibility:visible;opacity:1;isolation:auto;mix-blend-mode:normal;color-interpolation:sRGB;color-interpolation-filters:linearRGB;solid-color:#000000;solid-opacity:1;fill:#000000;fill-opacity:1;fill-rule:nonzero;stroke:none;stroke-width:17.75499916;stroke-linecap:butt;stroke-linejoin:miter;stroke-miterlimit:4;stroke-dasharray:none;stroke-dashoffset:0;stroke-opacity:1;color-rendering:auto;image-rendering:auto;shape-rendering:auto;text-rendering:auto;enable-background:accumulate"
         d="m -1572.6083,487.31283 c -5.1936,0 -9.4321,4.23855 -9.4321,9.43212 0,5.19358 4.2385,9.43212 9.4321,9.43212 5.1936,0 9.4321,-4.23854 9.4321,-9.43212 0,-5.19357 -4.2385,-9.43212 -9.4321,-9.43212 z m 0,2.64049 c 3.7666,0 6.7916,3.02502 6.7916,6.79163 0,3.76662 -3.025,6.79192 -6.7916,6.79192 -3.7666,0 -6.7919,-3.0253 -6.7919,-6.79192 0,-3.76661 3.0253,-6.79163 6.7919,-6.79163 z"
         id="path4206"
         inkscape:connector-curvature="0" />
      <path
         style="fill:none;fill-opacity:0.76470588;stroke:#000000;stroke-width:1.61765778;stroke-miterlimit:4;stroke-dasharray:none"
         d="m -1567.9218,519.63312 c 1.3377,-3.80765 4.5975,-6.92283 8.5698,-7.82887 1.0625,-0.21566 3.3772,-1.12189 3.0485,0.80261 -0.3579,1.74237 -0.5487,3.21582 -1.2613,5.1846 -0.957,2.08662 -1.6532,3.75528 -3.8245,5.03143 -0.1803,0.10718 -0.4161,0.2372 -0.701,0.36613 -0.285,0.12893 -0.9269,0.38552 -1.3033,0.49045 -0.3661,0.10205 -2.7629,0.31263 -3.2384,-0.10266 2.8049,-1.3218 1.1015,-0.57414 2.9877,-2.12935 0.8499,-0.7008 1.6157,-2.14121 1.8833,-2.83785 -0.8588,0.6291 -1.1731,0.91322 -1.4045,1.14374 -1.3986,1.44969 -2.723,1.75979 -4.7442,2.0856 -0.9419,0.11551 -0.1782,-1.49843 -0.012,-2.20583 z"
         id="path4222"
         inkscape:connector-curvature="0"
         sodipodi:nodetypes="cccccsscscccc" />
      <path
         style="color:#000000;font-style:normal;font-variant:normal;font-weight:normal;font-stretch:normal;font-size:medium;line-height:normal;font-family:sans-serif;text-indent:0;text-align:start;text-decoration:none;text-decoration-line:none;text-decoration-style:solid;text-decoration-color:#000000;letter-spacing:normal;word-spacing:normal;text-transform:none;direction:ltr;block-progression:tb;writing-mode:lr-tb;baseline-shift:baseline;text-anchor:start;white-space:normal;clip-rule:nonzero;display:inline;overflow:visible;visibility:visible;opacity:1;isolation:auto;mix-blend-mode:normal;color-interpolation:sRGB;color-interpolation-filters:linearRGB;solid-color:#000000;solid-opacity:1;fill:#000000;fill-opacity:1;fill-rule:nonzero;stroke:none;stroke-width:17.75499916;stroke-linecap:butt;stroke-linejoin:miter;stroke-miterlimit:4;stroke-dasharray:none;stroke-dashoffset:0;stroke-opacity:1;color-rendering:auto;image-rendering:auto;shape-rendering:auto;text-rendering:auto;enable-background:accumulate"
         d="m -1546.4204,520.45437 c -5.2276,0 -9.4939,4.26631 -9.4939,9.49391 0,5.2276 4.2663,9.49392 9.4939,9.49392 5.2276,0 9.494,-4.26632 9.494,-9.49392 0,-5.2276 -4.2664,-9.49391 -9.494,-9.49391 z m 0,2.65779 c 3.7913,0 6.8362,3.04483 6.8362,6.83612 0,3.79129 -3.0449,6.83641 -6.8362,6.83641 -3.7913,0 -6.8364,-3.04512 -6.8364,-6.83641 0,-3.79129 3.0451,-6.83612 6.8364,-6.83612 z"
         id="path4224"
         inkscape:connector-curvature="0" />
      <path
         inkscape:connector-curvature="0"
         id="path4226"
         d="m -1519.8076,518.88968 c 2.5632,-0.18526 5.1956,0.87267 6.8409,2.8644 0.9004,0.88937 1.5478,1.99619 1.8975,3.20964 0.6412,1.85719 0.7469,3.94734 -0.044,5.77911 -0.6309,1.56744 -1.5964,3.08566 -3.0037,4.05837 -0.8925,0.57151 -2.174,0.50053 -2.8806,-0.33768 -0.6671,-0.69273 -0.97,-1.62937 -1.4893,-2.42228 -1.3702,0.77815 -2.6889,1.68854 -4.1683,2.24584 -1.1392,0.28174 -2.3057,-0.40026 -2.8848,-1.36802 -0.802,-1.21998 -1.9413,-2.42836 -1.8949,-3.98653 0.085,-1.60669 1.5557,-2.61051 2.8279,-3.32772 0.4586,-0.39798 1.9759,-0.69373 1.3795,-1.49114 -0.6328,-0.94637 -1.45,-2.10038 -0.9501,-3.28522 0.5917,-1.34645 2.2034,-1.71573 3.5259,-1.87575 0.2806,-0.03 0.5624,-0.0487 0.8442,-0.063 z m -1.8813,2.85209 c -0.8391,0.69382 0.7063,1.55452 1.0814,2.1651 0.6261,0.54636 1.3248,1.59482 0.5605,2.31953 -1.0926,0.71166 -2.2753,1.28883 -3.4002,1.95333 -0.4677,0.44026 -1.6693,0.59169 -1.5003,1.37274 0.3653,0.72166 0.8227,1.41484 1.3602,2.01794 0.853,0.47603 1.6488,-0.58231 2.4287,-0.84914 1.0538,-0.59788 2.1005,-1.22584 3.1297,-1.84958 0.9686,-0.30533 1.0716,1.03103 1.3192,1.64726 0.3343,0.72537 0.2449,2.17612 1.2312,2.26174 0.9039,-0.66453 1.5229,-1.67711 1.9658,-2.69762 1.0345,-2.3582 0.4133,-5.3106 -1.5061,-7.03376 -1.3908,-1.34314 -3.4094,-1.90408 -5.3067,-1.60966 -0.4628,0.056 -0.9215,0.15269 -1.3634,0.30212 z"
         style="color:#000000;font-style:normal;font-variant:normal;font-weight:normal;font-stretch:normal;font-size:medium;line-height:normal;font-family:sans-serif;text-indent:0;text-align:start;text-decoration:none;text-decoration-line:none;text-decoration-style:solid;text-decoration-color:#000000;letter-spacing:normal;word-spacing:normal;text-transform:none;direction:ltr;block-progression:tb;writing-mode:lr-tb;baseline-shift:baseline;text-anchor:start;white-space:normal;clip-rule:nonzero;display:inline;overflow:visible;visibility:visible;opacity:1;isolation:auto;mix-blend-mode:normal;color-interpolation:sRGB;color-interpolation-filters:linearRGB;solid-color:#000000;solid-opacity:1;fill:#000000;fill-opacity:1;fill-rule:nonzero;stroke:none;stroke-width:3.30582881;stroke-linecap:butt;stroke-linejoin:miter;stroke-miterlimit:4;stroke-dasharray:none;stroke-dashoffset:0;stroke-opacity:1;color-rendering:auto;image-rendering:auto;shape-rendering:auto;text-rendering:auto;enable-background:accumulate" />
      <path
         inkscape:connector-curvature="0"
         id="path4228"
         d="m -1528.2982,537.52595 c -3.9984,0 -7.2615,3.26311 -7.2615,7.26148 0,3.99836 3.2631,7.26147 7.2615,7.26147 3.9983,0 7.2615,-3.26311 7.2615,-7.26147 0,-3.99837 -3.2632,-7.26148 -7.2615,-7.26148 z m 0,2.03283 c 2.8998,0 5.2286,2.32885 5.2286,5.22865 0,2.89979 -2.3288,5.22886 -5.2286,5.22886 -2.8998,0 -5.2289,-2.32907 -5.2289,-5.22886 0,-2.8998 2.3291,-5.22865 5.2289,-5.22865 z"
         style="color:#000000;font-style:normal;font-variant:normal;font-weight:normal;font-stretch:normal;font-size:medium;line-height:normal;font-family:sans-serif;text-indent:0;text-align:start;text-decoration:none;text-decoration-line:none;text-decoration-style:solid;text-decoration-color:#000000;letter-spacing:normal;word-spacing:normal;text-transform:none;direction:ltr;block-progression:tb;writing-mode:lr-tb;baseline-shift:baseline;text-anchor:start;white-space:normal;clip-rule:nonzero;display:inline;overflow:visible;visibility:visible;opacity:1;isolation:auto;mix-blend-mode:normal;color-interpolation:sRGB;color-interpolation-filters:linearRGB;solid-color:#000000;solid-opacity:1;fill:#000000;fill-opacity:1;fill-rule:nonzero;stroke:none;stroke-width:17.75499916;stroke-linecap:butt;stroke-linejoin:miter;stroke-miterlimit:4;stroke-dasharray:none;stroke-dashoffset:0;stroke-opacity:1;color-rendering:auto;image-rendering:auto;shape-rendering:auto;text-rendering:auto;enable-background:accumulate" />
      <path
         sodipodi:nodetypes="ccccccccccccccccccccscccscccccccccs"
         style="opacity:1;fill:#000000;fill-opacity:1;stroke:#000000;stroke-width:0.32228523;stroke-linecap:butt;stroke-linejoin:miter;stroke-miterlimit:4;stroke-dasharray:none;stroke-dashoffset:0;stroke-opacity:1"
         d="m -1538.374,458.06197 c -22.2546,-0.80406 -44.4223,2.37492 -65.1904,9.34869 l 60.0019,138.73043 56.6308,-106.35407 c 0.6091,-1.18871 1.2295,-2.39127 1.4757,-2.87006 0,0 -3.9705,1.06382 -5.8674,-4.88191 -0.701,0.51108 -0.7389,0.4998 -1.5519,0.70936 -4.51,1.34106 -8.4924,-1.02651 -7.9768,-8.42035 0.019,-0.38644 0.068,-0.7708 0.1468,-1.14952 -3.737,0.39694 -6.8957,1.55704 -8.9549,-2.64514 -2.2714,-5.38502 1.0979,-7.0434 3.8762,-9.87283 -2.2805,-1.06987 -4.2829,-3.44731 -4.1816,-5.9642 0.042,-1.04892 0.3403,-2.02712 0.8316,-2.87695 -0.7769,-0.32347 -1.2823,-0.48663 -2.9694,-0.7459 -8.6599,-1.62094 -17.4445,-2.62664 -26.2706,-3.00755 z m -0.054,2.60182 c 8.4953,0.361 16.9497,1.33872 25.2793,2.92336 -0.073,0.35757 -0.1175,0.7203 -0.1336,1.08485 -0.1131,2.81153 1.47,5.41694 4.0174,6.61191 -0.7187,0.59478 -1.3202,1.30199 -1.7923,2.084 -9.7496,-2.54209 -19.6725,-3.63101 -29.1377,-3.81213 -29.5434,-0.56531 -54.4214,7.64089 -55.8566,8.12293 l -3.5636,-8.24017 c 19.4927,-6.54556 40.2991,-9.52937 61.1871,-8.77475 z m 1.1552,12.37255 c 8.0026,0.35112 16.2429,1.40852 24.3082,3.51145 0.2106,4.19632 3.9331,9.54465 8.2129,9.71692 0.5597,0.0194 1.12,-0.0184 1.672,-0.113 -0.088,0.42317 -0.1432,0.85265 -0.164,1.28445 -0.1828,4.53275 3.7376,7.89579 8.2703,8.0785 0.8488,0.0309 1.6973,-0.0701 2.5152,-0.29936 0.5266,1.47924 1.5358,2.73818 2.865,3.57411 l -53.7051,100.8599 -51.5758,-119.01955 c 4.2073,-1.32668 29.4063,-8.83045 57.6013,-7.59342 z"
         id="path4138"
         inkscape:connector-curvature="0" />
      <path
         sodipodi:nodetypes="ccccccc"
         inkscape:connector-curvature="0"
         id="rect4267"
         d="m -1673.8201,509.83339 9.1924,20.01086 -9.1924,20.01087 259.1647,0 -9.1924,-20.01087 9.1924,-20.01086 z"
         style="opacity:0.98;fill:#a68f58;fill-opacity:1;stroke:#000000;stroke-width:3.26421785;stroke-linecap:butt;stroke-linejoin:miter;stroke-miterlimit:4;stroke-dasharray:none;stroke-dashoffset:0;stroke-opacity:1" />
      <path
         sodipodi:nodetypes="ccccccc"
         inkscape:connector-curvature="0"
         id="path1370"
         style="fill:#a68f58;fill-opacity:0.98039216;fill-rule:nonzero;stroke:#000000;stroke-width:3.26421809;stroke-miterlimit:4;stroke-dasharray:none"
         d="m -1402.3767,529.84314 7.4231,-16.21034 -15.5893,0 -7.4251,16.21034 7.4251,16.21034 15.5912,0.002 z" />
      <path
         d="m -1686.0309,529.84314 -7.4231,-16.21034 15.5893,0 7.4251,16.21034 -7.4251,16.21034 -15.5912,0.002 z"
         style="fill:#a68f58;fill-opacity:0.98039216;fill-rule:nonzero;stroke:#000000;stroke-width:3.26421809;stroke-miterlimit:4;stroke-dasharray:none"
         id="path4334"
         inkscape:connector-curvature="0"
         sodipodi:nodetypes="ccccccc" />
      <flowRoot
         transform="matrix(0.23674426,0,0,0.26808636,-1277.9811,511.55773)"
         style="font-style:normal;font-variant:normal;font-weight:normal;font-stretch:normal;font-size:90px;line-height:125%;font-family:Daniel;-inkscape-font-specification:Daniel;letter-spacing:0px;word-spacing:0px;fill:#000000;fill-opacity:1;stroke:none;stroke-width:1px;stroke-linecap:butt;stroke-linejoin:miter;stroke-opacity:1"
         id="flowRoot4380"
         xml:space="preserve"><flowRegion
           id="flowRegion4382"><rect
             style="font-style:normal;font-variant:normal;font-weight:normal;font-stretch:normal;font-size:90px;font-family:Daniel;-inkscape-font-specification:Daniel"
             y="19.986303"
             x="-1515.2288"
             height="163.64471"
             width="1262.6907"
             id="rect4384" /></flowRegion><flowPara
           style="font-style:normal;font-variant:normal;font-weight:normal;font-stretch:normal;font-size:90px;font-family:Bungee;-inkscape-font-specification:Bungee"
           id="flowPara4386">Polito's Pizza</flowPara></flowRoot>      <flowRoot
         transform="matrix(0.18384782,0,0,0.18384782,-1361.2013,532.62681)"
         style="font-style:normal;font-variant:normal;font-weight:normal;font-stretch:normal;font-size:40px;line-height:125%;font-family:Pacifico;-inkscape-font-specification:Pacifico;letter-spacing:0px;word-spacing:0px;fill:#000000;fill-opacity:1;stroke:none;stroke-width:1px;stroke-linecap:butt;stroke-linejoin:miter;stroke-opacity:1"
         id="flowRoot4243"
         xml:space="preserve"><flowRegion
           id="flowRegion4245"><rect
             style="font-style:normal;font-variant:normal;font-weight:normal;font-stretch:normal;font-family:Pacifico;-inkscape-font-specification:Pacifico"
             y="240.19955"
             x="-1349.5638"
             height="64.649765"
             width="297.995"
             id="rect4247" /></flowRegion><flowPara
           style="font-style:normal;font-variant:normal;font-weight:normal;font-stretch:normal;font-size:50px;font-family:Bungee;-inkscape-font-specification:Bungee"
           id="flowPara4249">S I N C E</flowPara></flowRoot>      <flowRoot
         xml:space="preserve"
         id="flowRoot4251"
         style="font-style:normal;font-variant:normal;font-weight:normal;font-stretch:normal;font-size:40px;line-height:125%;font-family:Pacifico;-inkscape-font-specification:Pacifico;letter-spacing:0px;word-spacing:0px;fill:#000000;fill-opacity:1;stroke:none;stroke-width:1px;stroke-linecap:butt;stroke-linejoin:miter;stroke-opacity:1"
         transform="matrix(0.18384782,0,0,0.18384782,-1261.6584,532.62681)"><flowRegion
           id="flowRegion4253"><rect
             id="rect4255"
             width="297.995"
             height="64.649765"
             x="-1349.5638"
             y="240.19955"
             style="font-style:normal;font-variant:normal;font-weight:normal;font-stretch:normal;font-family:Pacifico;-inkscape-font-specification:Pacifico" /></flowRegion><flowPara
           id="flowPara4257"
           style="font-style:normal;font-variant:normal;font-weight:normal;font-stretch:normal;font-size:50px;font-family:Bungee;-inkscape-font-specification:Bungee">2 0 1 6</flowPara></flowRoot>    </g>
  </g>
</svg>
