<?xml version="1.0" encoding="UTF-8" standalone="no"?>
<!-- Created with Inkscape (http://www.inkscape.org/) -->

<svg
   xmlns:dc="http://purl.org/dc/elements/1.1/"
   xmlns:cc="http://creativecommons.org/ns#"
   xmlns:rdf="http://www.w3.org/1999/02/22-rdf-syntax-ns#"
   xmlns:svg="http://www.w3.org/2000/svg"
   xmlns="http://www.w3.org/2000/svg"
   xmlns:sodipodi="http://sodipodi.sourceforge.net/DTD/sodipodi-0.dtd"
   xmlns:inkscape="http://www.inkscape.org/namespaces/inkscape"
   width="39.511112mm"
   height="11.288889mm"
   viewBox="0 0 140.00001 40"
   id="svg2"
   version="1.1"
   inkscape:version="0.91 r13725"
   sodipodi:docname="closed.svg">
  <defs
     id="defs4" />
  <sodipodi:namedview
     id="base"
     pagecolor="#ffffff"
     bordercolor="#666666"
     borderopacity="1.0"
     inkscape:pageopacity="0.0"
     inkscape:pageshadow="2"
     inkscape:zoom="7.919596"
     inkscape:cx="49.815993"
     inkscape:cy="13.32197"
     inkscape:document-units="px"
     inkscape:current-layer="g4170"
     showgrid="false"
     fit-margin-top="0"
     fit-margin-left="0"
     fit-margin-right="0"
     fit-margin-bottom="0"
     showborder="false"
     inkscape:window-width="698"
     inkscape:window-height="409"
     inkscape:window-x="904"
     inkscape:window-y="253"
     inkscape:window-maximized="0" />
  <metadata
     id="metadata7">
    <rdf:RDF>
      <cc:Work
         rdf:about="">
        <dc:format>image/svg+xml</dc:format>
        <dc:type
           rdf:resource="http://purl.org/dc/dcmitype/StillImage" />
        <dc:title />
      </cc:Work>
    </rdf:RDF>
  </metadata>
  <g
     inkscape:label="Layer 1"
     inkscape:groupmode="layer"
     id="layer1"
     transform="translate(-128.3909,-459.91028)">
    <g
       id="g4142"
       transform="matrix(0.36664796,0,0,0.36664796,87.650159,322.95272)">
      <g
         id="g4170">
        <rect
           style="opacity:1;fill:#b20000;fill-opacity:1;stroke:none;stroke-width:0;stroke-miterlimit:4;stroke-dasharray:none;stroke-opacity:1"
           id="rect4136"
           width="381.83768"
           height="109.09647"
           x="111.1168"
           y="373.53967"
           rx="5"
           ry="5"
           inkscape:export-filename="/var/www/html/PolitosPizza/public/img/status/closed.png"
           inkscape:export-xdpi="90"
           inkscape:export-ydpi="90" />
        <g
           style="font-style:normal;font-weight:normal;font-size:31.04932594px;line-height:125%;font-family:sans-serif;letter-spacing:0px;word-spacing:0px;fill:#f8f1e5;fill-opacity:1;stroke:none;stroke-width:1px;stroke-linecap:butt;stroke-linejoin:miter;stroke-opacity:1"
           id="text4138">
          <path
             d="m 169.95179,450.44342 -19.56107,0 q -7.76234,0 -11.55035,-3.10493 -3.72592,-3.10493 -3.72592,-9.56319 l 0,-19.37478 q 0,-6.45826 3.72592,-9.5632 3.78801,-3.10493 11.55035,-3.10493 l 15.52466,0 q 1.17987,0 1.67666,0.55889 0.55889,0.49679 0.55889,1.67666 l 0,7.51394 q 0,1.17987 -0.55889,1.73876 -0.49679,0.49679 -1.67666,0.49679 l -12.91652,0 q -1.92506,0 -2.85654,0.80728 -0.93148,0.74519 -0.93148,2.29765 l 0,14.84158 q 0,1.55247 0.68309,2.29765 0.74518,0.74519 2.17345,0.74519 l 6.02357,0 0,-9.68739 q 0,-1.17988 0.49679,-1.67667 0.55889,-0.55889 1.73876,-0.55889 l 9.62529,0 q 1.17988,0 1.67666,0.55889 0.55889,0.49679 0.55889,1.67667 l 0,19.18848 q 0,1.17987 -0.55889,1.73876 -0.49678,0.49679 -1.67666,0.49679 z"
             style="font-style:normal;font-variant:normal;font-weight:normal;font-stretch:normal;font-size:62.09865189px;font-family:bungee;-inkscape-font-specification:bungee;fill:#f8f1e5;fill-opacity:1"
             id="path4718" />
          <path
             d="m 210.87383,450.44342 -28.81377,0 q -1.17988,0 -1.73876,-0.49679 -0.49679,-0.55889 -0.49679,-1.73876 l 0,-40.23993 q 0,-1.17987 0.49679,-1.67666 0.55888,-0.55889 1.73876,-0.55889 l 28.81377,0 q 1.17988,0 1.67667,0.55889 0.55888,0.49679 0.55888,1.67666 l 0,7.26554 q 0,1.17988 -0.55888,1.73877 -0.49679,0.49679 -1.67667,0.49679 l -17.13923,0 0,4.78159 12.10924,0 q 1.17988,0 1.67667,0.55889 0.55888,0.49679 0.55888,1.67666 l 0,6.64456 q 0,1.17987 -0.55888,1.73876 -0.49679,0.49679 -1.67667,0.49679 l -12.10924,0 0,5.34049 17.13923,0 q 1.17988,0 1.67667,0.55888 0.55888,0.49679 0.55888,1.67667 l 0,7.26554 q 0,1.17987 -0.55888,1.73876 -0.49679,0.49679 -1.67667,0.49679 z"
             style="font-style:normal;font-variant:normal;font-weight:normal;font-stretch:normal;font-size:62.09865189px;font-family:bungee;-inkscape-font-specification:bungee;fill:#f8f1e5;fill-opacity:1"
             id="path4720" />
          <path
             d="m 241.19641,450.44342 -19.62317,0 q -1.17988,0 -1.73877,-0.49679 -0.49678,-0.55889 -0.49678,-1.73876 l 0,-7.26554 q 0,-1.17988 0.49678,-1.67667 0.55889,-0.55888 1.73877,-0.55888 l 16.70453,0 q 0.80729,0 1.17988,-0.49679 0.43469,-0.55889 0.43469,-1.30408 0,-1.05567 -0.43469,-1.55246 -0.37259,-0.49679 -1.17988,-0.55889 l -9.31479,-1.30407 q -4.34691,-0.62099 -7.01715,-2.85654 -2.60814,-2.23555 -2.60814,-7.45184 l 0,-6.52036 q 0,-5.27838 3.41542,-8.07282 3.41543,-2.85654 9.439,-2.85654 l 17.38762,0 q 1.17987,0 1.67666,0.55889 0.55889,0.49679 0.55889,1.67666 l 0,7.38974 q 0,1.17988 -0.55889,1.73876 -0.49679,0.49679 -1.67666,0.49679 l -14.46899,0 q -0.80728,0 -1.24197,0.55889 -0.43469,0.49679 -0.43469,1.30407 0,0.80729 0.43469,1.36617 0.43469,0.55889 1.24197,0.62099 l 9.2527,1.24197 q 4.34691,0.62099 7.01715,2.85654 2.67024,2.23555 2.67024,7.45184 l 0,6.52036 q 0,5.27838 -3.47752,8.13492 -3.41543,2.79444 -9.3769,2.79444 z"
             style="font-style:normal;font-variant:normal;font-weight:normal;font-stretch:normal;font-size:62.09865189px;font-family:bungee;-inkscape-font-specification:bungee;fill:#f8f1e5;fill-opacity:1"
             id="path4722" />
          <path
             d="m 294.68761,450.44342 -31.60822,0 q -1.17987,0 -1.73876,-0.49679 -0.49679,-0.55889 -0.49679,-1.73876 l 0,-40.23993 q 0,-1.17987 0.49679,-1.67666 0.55889,-0.55889 1.73876,-0.55889 l 9.6253,0 q 1.17987,0 1.67666,0.55889 0.55889,0.49679 0.55889,1.67666 l 0,30.73884 8.50751,0 0,-10.05999 q 0,-1.17987 0.49679,-1.67666 0.55889,-0.55889 1.73876,-0.55889 l 9.00431,0 q 1.17987,0 1.67666,0.55889 0.55889,0.49679 0.55889,1.67666 l 0,19.56108 q 0,1.17987 -0.55889,1.73876 -0.49679,0.49679 -1.67666,0.49679 z"
             style="font-style:normal;font-variant:normal;font-weight:normal;font-stretch:normal;font-size:62.09865189px;font-family:bungee;-inkscape-font-specification:bungee;fill:#f8f1e5;fill-opacity:1"
             id="path4724" />
          <path
             d="m 341.90198,438.70678 q 0,2.85653 -0.86938,5.21628 -0.80728,2.29765 -2.98073,3.97432 -2.11136,1.61456 -5.89937,2.54604 -3.72592,0.93148 -9.5011,0.93148 -5.77517,0 -9.56319,-0.93148 -3.78802,-0.93148 -5.96147,-2.54604 -2.11136,-1.67667 -2.98074,-3.97432 -0.80728,-2.35975 -0.80728,-5.21628 l 0,-21.17565 q 0,-2.85653 0.80728,-5.15418 0.86938,-2.35975 2.98074,-4.03642 2.17345,-1.67666 5.96147,-2.60814 3.78802,-0.93148 9.56319,-0.93148 5.77518,0 9.5011,0.93148 3.78801,0.93148 5.89937,2.60814 2.17345,1.67667 2.98073,4.03642 0.86938,2.29765 0.86938,5.15418 l 0,21.17565 z m -24.46686,-2.23556 q 0,1.24198 0.93148,2.11136 0.93147,0.80728 4.2848,0.80728 3.35333,0 4.28481,-0.80728 0.93148,-0.86938 0.93148,-2.11136 l 0,-16.70453 q 0,-1.17988 -0.93148,-1.98716 -0.93148,-0.86938 -4.28481,-0.86938 -3.35333,0 -4.2848,0.86938 -0.93148,0.80728 -0.93148,1.98716 l 0,16.70453 z"
             style="font-style:normal;font-variant:normal;font-weight:normal;font-stretch:normal;font-size:62.09865189px;font-family:bungee;-inkscape-font-specification:bungee;fill:#f8f1e5;fill-opacity:1"
             id="path4726" />
          <path
             d="m 370.49648,450.44342 -10.05998,0 q -1.17988,0 -1.73877,-0.49679 -0.49679,-0.55889 -0.49679,-1.73876 l 0,-30.49044 -9.1285,0 q -1.17987,0 -1.73876,-0.49679 -0.49679,-0.55889 -0.49679,-1.73876 l 0,-7.51394 q 0,-1.17987 0.49679,-1.67666 0.55889,-0.55889 1.73876,-0.55889 l 32.78809,0 q 1.17988,0 1.67666,0.55889 0.55889,0.49679 0.55889,1.67666 l 0,7.51394 q 0,1.17987 -0.55889,1.73876 -0.49678,0.49679 -1.67666,0.49679 l -9.1285,0 0,30.49044 q 0,1.17987 -0.55889,1.73876 -0.49679,0.49679 -1.67666,0.49679 z"
             style="font-style:normal;font-variant:normal;font-weight:normal;font-stretch:normal;font-size:62.09865189px;font-family:bungee;-inkscape-font-specification:bungee;fill:#f8f1e5;fill-opacity:1"
             id="path4728" />
          <path
             d="m 421.18451,450.44342 -28.81378,0 q -1.17987,0 -1.73876,-0.49679 -0.49679,-0.55889 -0.49679,-1.73876 l 0,-40.23993 q 0,-1.17987 0.49679,-1.67666 0.55889,-0.55889 1.73876,-0.55889 l 28.81378,0 q 1.17987,0 1.67666,0.55889 0.55889,0.49679 0.55889,1.67666 l 0,7.26554 q 0,1.17988 -0.55889,1.73877 -0.49679,0.49679 -1.67666,0.49679 l -17.13923,0 0,4.78159 12.10923,0 q 1.17988,0 1.67667,0.55889 0.55889,0.49679 0.55889,1.67666 l 0,6.64456 q 0,1.17987 -0.55889,1.73876 -0.49679,0.49679 -1.67667,0.49679 l -12.10923,0 0,5.34049 17.13923,0 q 1.17987,0 1.67666,0.55888 0.55889,0.49679 0.55889,1.67667 l 0,7.26554 q 0,1.17987 -0.55889,1.73876 -0.49679,0.49679 -1.67666,0.49679 z"
             style="font-style:normal;font-variant:normal;font-weight:normal;font-stretch:normal;font-size:62.09865189px;font-family:bungee;-inkscape-font-specification:bungee;fill:#f8f1e5;fill-opacity:1"
             id="path4730" />
          <path
             d="m 442.31648,450.44342 -9.3148,0 q -1.17987,0 -1.73876,-0.49679 -0.49679,-0.55889 -0.49679,-1.73876 l 0,-40.23993 q 0,-1.17987 0.49679,-1.67666 0.55889,-0.55889 1.73876,-0.55889 l 6.45826,0 q 1.17988,0 1.98716,0.37259 0.86938,0.37259 1.67666,1.30407 l 12.04714,13.78591 0,-13.22702 q 0,-1.17987 0.49679,-1.67666 0.55889,-0.55889 1.73876,-0.55889 l 9.3148,0 q 1.17987,0 1.67666,0.55889 0.55889,0.49679 0.55889,1.67666 l 0,40.23993 q 0,1.17987 -0.55889,1.73876 -0.49679,0.49679 -1.67666,0.49679 l -9.3148,0 q -1.17987,0 -1.73876,-0.49679 -0.49679,-0.55889 -0.49679,-1.73876 l 0,-7.63814 -10.61887,-12.85442 0,20.49256 q 0,1.17987 -0.55889,1.73876 -0.49679,0.49679 -1.67666,0.49679 z"
             style="font-style:normal;font-variant:normal;font-weight:normal;font-stretch:normal;font-size:62.09865189px;font-family:bungee;-inkscape-font-specification:bungee;fill:#f8f1e5;fill-opacity:1"
             id="path4732" />
        </g>
      </g>
    </g>
  </g>
</svg>
